<svg width="477" height="354" viewBox="0 0 477 354" fill="none" xmlns="http://www.w3.org/2000/svg">
<path d="M476.352 311.09H0V311.328H476.352V311.09Z" fill="#EBEBEB"/>
<path d="M428.621 326.378H397.068V326.616H428.621V326.378Z" fill="#EBEBEB"/>
<path d="M315.554 328.963H307.275V329.201H315.554V328.963Z" fill="#EBEBEB"/>
<path d="M396.115 317.561H377.833V317.799H396.115V317.561Z" fill="#EBEBEB"/>
<path d="M91.126 319.157H49.9788V319.395H91.126V319.157Z" fill="#EBEBEB"/>
<path d="M105.645 319.157H99.6147V319.395H105.645V319.157Z" fill="#EBEBEB"/>
<path d="M214.501 323.167H125.252V323.405H214.501V323.167Z" fill="#EBEBEB"/>
<path d="M225.791 268.712H41.8332C40.3921 268.709 39.0109 268.136 37.9928 267.119C36.9747 266.102 36.4028 264.723 36.4028 263.286V5.37803C36.4154 3.94898 36.9927 2.58258 38.0095 1.57561C39.0263 0.568645 40.4003 0.00244804 41.8332 0H225.791C227.234 0 228.617 0.571618 229.637 1.5891C230.658 2.60659 231.231 3.9866 231.231 5.42554V263.286C231.231 264.725 230.658 266.105 229.637 267.123C228.617 268.14 227.234 268.712 225.791 268.712ZM41.8332 0.190037C40.4553 0.192554 39.1347 0.740254 38.1612 1.71292C37.1877 2.68559 36.641 4.00374 36.641 5.37803V263.286C36.641 264.66 37.1877 265.979 38.1612 266.951C39.1347 267.924 40.4553 268.472 41.8332 268.474H225.791C227.17 268.472 228.491 267.924 229.466 266.952C230.441 265.979 230.99 264.661 230.993 263.286V5.37803C230.99 4.00286 230.441 2.68473 229.466 1.71234C228.491 0.739945 227.17 0.192549 225.791 0.190037H41.8332Z" fill="#EBEBEB"/>
<path d="M431.87 268.712H247.903C246.461 268.709 245.079 268.137 244.059 267.12C243.039 266.103 242.465 264.724 242.463 263.286V5.37803C242.478 3.94812 243.057 2.58172 244.076 1.57502C245.094 0.568312 246.469 0.00242134 247.903 0H431.87C433.301 0.00494522 434.673 0.572247 435.687 1.57894C436.702 2.58564 437.278 3.95062 437.291 5.37803V263.286C437.291 264.722 436.72 266.099 435.704 267.116C434.688 268.133 433.309 268.707 431.87 268.712ZM247.903 0.190037C246.524 0.192549 245.202 0.739945 244.227 1.71234C243.252 2.68473 242.704 4.00286 242.701 5.37803V263.286C242.704 264.661 243.252 265.979 244.227 266.952C245.202 267.924 246.524 268.472 247.903 268.474H431.87C433.249 268.472 434.57 267.924 435.545 266.952C436.52 265.979 437.069 264.661 437.072 263.286V5.37803C437.069 4.00286 436.52 2.68473 435.545 1.71234C434.57 0.739945 433.249 0.192549 431.87 0.190037H247.903Z" fill="#EBEBEB"/>
<path opacity="0.4" d="M476.352 248.948V311.09H0V248.948C13.3855 251.143 17.5012 256.435 37.4127 256.435C62.5069 256.416 62.5069 247.998 87.6487 247.998C112.791 247.998 112.743 256.407 137.837 256.407C162.931 256.407 162.912 247.998 187.997 247.998C213.082 247.998 213.091 256.407 238.185 256.407C263.28 256.407 263.28 247.998 288.383 247.998C313.487 247.998 313.478 256.407 338.572 256.407C363.666 256.407 363.666 247.998 388.76 247.998C413.854 247.998 413.864 256.407 438.958 256.407C458.86 256.416 463.014 251.133 476.352 248.948Z" fill="#E0E0E0"/>
<path d="M267.052 106.962H53.4561C53.4561 106.962 63.1832 89.8588 81.7228 89.8588C100.262 89.8588 82.8755 99.3606 97.2423 99.3606C111.609 99.3606 126.433 68.6317 172.068 68.6317C217.702 68.6317 179.946 91.7402 203.574 91.7402C227.201 91.7402 302.845 71.2637 267.052 106.962Z" fill="#FAFAFA"/>
<path d="M428.86 134.337H322.062C322.062 134.337 326.93 125.785 336.2 125.785C345.469 125.785 336.771 130.536 343.955 130.536C351.138 130.536 358.55 115.172 381.367 115.172C404.185 115.172 385.312 126.726 397.125 126.726C408.939 126.726 446.761 116.483 428.86 134.337Z" fill="#FAFAFA"/>
<path d="M219.379 43.0052C228.392 43.0052 219.941 47.6136 226.925 47.6136C233.908 47.6136 241.139 32.6578 263.346 32.6578C285.173 32.6578 268.701 45.3807 279.047 45.8178H279.609C289.974 45.8178 300.673 23.65 333.589 23.65C366.505 23.65 339.305 40.3162 356.311 40.3162C373.317 40.3162 427.926 25.5789 402.108 51.3098H205.622C205.622 51.3098 210.357 43.0052 219.379 43.0052Z" fill="#FAFAFA"/>
<path d="M94.8511 36.107C93.3856 35.5217 91.8624 35.0918 90.3067 34.8242C88.7327 34.5676 87.1342 34.4942 85.5432 34.6057C84.356 34.7017 83.1796 34.902 82.0277 35.2043C81.2243 34.2543 80.345 33.3709 79.3983 32.5628C76.9107 30.4579 73.9802 28.9381 70.8239 28.1159C69.3429 27.7046 67.8165 27.478 66.2795 27.4413C67.7507 27.847 69.1677 28.4276 70.5 29.1706C71.833 29.8843 73.0878 30.7345 74.2441 31.7076C76.5447 33.6462 78.389 36.0663 79.646 38.796L80.5129 40.6963L82.1611 39.6796C84.5928 38.1623 87.36 37.262 90.221 37.0571C91.6868 36.9531 93.1597 37.0105 94.6129 37.2282C96.1091 37.442 97.5741 37.8344 98.9763 38.3969C97.6964 37.4743 96.3118 36.7057 94.8511 36.107Z" fill="#E0E0E0"/>
<path d="M124.471 54.6735C123.244 54.4006 121.992 54.2604 120.736 54.2554C119.452 54.2557 118.173 54.4089 116.925 54.7115C116.006 54.9465 115.11 55.2645 114.248 55.6617C113.491 55.0234 112.685 54.4452 111.838 53.9324C110.707 53.2617 109.506 52.7169 108.256 52.3076C107.051 51.9218 105.809 51.6669 104.549 51.5474C103.332 51.422 102.103 51.4443 100.891 51.6139C102.097 51.7298 103.283 51.9914 104.426 52.3931C105.568 52.7763 106.667 53.2796 107.703 53.8944C109.76 55.123 111.526 56.783 112.876 58.7593L113.829 60.1086L114.991 59.0919C116.705 57.5752 118.766 56.5018 120.993 55.9658C122.133 55.6951 123.299 55.5485 124.471 55.5287C125.671 55.5001 126.871 55.6181 128.043 55.8803C126.905 55.3381 125.705 54.933 124.471 54.6735Z" fill="#E0E0E0"/>
<path d="M394.229 76.6323C392.502 77.0887 390.829 77.7257 389.237 78.5327C387.623 79.3842 386.117 80.424 384.749 81.6303C383.742 82.5279 382.817 83.5137 381.986 84.5758C380.608 84.2646 379.206 84.0676 377.795 83.9867C374.108 83.7876 370.424 84.4109 367.01 85.8111C365.387 86.4606 363.848 87.3029 362.427 88.3196C364.03 87.6749 365.702 87.2189 367.41 86.9608C369.111 86.6889 370.835 86.5965 372.555 86.6853C375.969 86.8649 379.303 87.7893 382.32 89.3933L384.378 90.4765L385.169 88.4241C386.327 85.3969 388.207 82.6966 390.647 80.5566C391.903 79.4589 393.277 78.503 394.743 77.706C396.248 76.8827 397.848 76.2446 399.507 75.8057C397.721 75.8746 395.95 76.152 394.229 76.6323Z" fill="#E0E0E0"/>
<path d="M238.176 354C340.194 354 422.896 349.184 422.896 343.244C422.896 337.304 340.194 332.488 238.176 332.488C136.158 332.488 53.4561 337.304 53.4561 343.244C53.4561 349.184 136.158 354 238.176 354Z" fill="#F5F5F5"/>
<path d="M132.054 215.653H174.021V193.961H132.054V215.653Z" fill="#FF772B"/>
<path opacity="0.4" d="M132.054 215.653H174.021V193.961H132.054V215.653Z" fill="#FAFAFA"/>
<path d="M132.054 193.951H121.27V215.644H132.054V193.951Z" fill="#FF772B"/>
<path opacity="0.4" d="M132.054 193.951H121.27V215.644H132.054V193.951Z" fill="#FAFAFA"/>
<path opacity="0.2" d="M132.054 193.951H121.27V215.644H132.054V193.951Z" fill="black"/>
<path opacity="0.2" d="M172.258 214.77H173.316V194.844H172.258V214.77Z" fill="black"/>
<path opacity="0.2" d="M169.924 214.77H170.982V194.844H169.924V214.77Z" fill="black"/>
<path opacity="0.2" d="M167.609 214.77H168.667V194.844H167.609V214.77Z" fill="black"/>
<path opacity="0.2" d="M165.285 214.77H166.342V194.844H165.285V214.77Z" fill="black"/>
<path opacity="0.2" d="M162.96 214.77H164.017V194.844H162.96V214.77Z" fill="black"/>
<path opacity="0.2" d="M160.645 214.77H161.702V194.844H160.645V214.77Z" fill="black"/>
<path opacity="0.2" d="M158.311 214.77H159.368V194.844H158.311V214.77Z" fill="black"/>
<path opacity="0.2" d="M155.996 214.77H157.053V194.844H155.996V214.77Z" fill="black"/>
<path opacity="0.2" d="M153.671 214.77H154.729V194.844H153.671V214.77Z" fill="black"/>
<path opacity="0.2" d="M151.347 214.77H152.404V194.844H151.347V214.77Z" fill="black"/>
<path opacity="0.2" d="M149.032 214.77H150.089V194.844H149.032V214.77Z" fill="black"/>
<path opacity="0.2" d="M146.697 214.77H147.755V194.844H146.697V214.77Z" fill="black"/>
<path opacity="0.2" d="M144.382 214.77H145.44V194.844H144.382V214.77Z" fill="black"/>
<path opacity="0.2" d="M142.058 214.77H143.115V194.844H142.058V214.77Z" fill="black"/>
<path opacity="0.2" d="M139.733 214.77H140.791V194.844H139.733V214.77Z" fill="black"/>
<path opacity="0.2" d="M137.418 214.77H138.476V194.844H137.418V214.77Z" fill="black"/>
<path opacity="0.2" d="M135.084 214.77H136.141V194.844H135.084V214.77Z" fill="black"/>
<path opacity="0.2" d="M132.759 214.77H133.817V194.844H132.759V214.77Z" fill="black"/>
<path d="M82.3422 215.653H124.309V193.961H82.3422V215.653Z" fill="#FF772B"/>
<path d="M82.3422 193.951H71.5576V215.644H82.3422V193.951Z" fill="#FF772B"/>
<path opacity="0.2" d="M82.3422 193.951H71.5576V215.644H82.3422V193.951Z" fill="black"/>
<path opacity="0.2" d="M122.537 214.77H123.594V194.844H122.537V214.77Z" fill="black"/>
<path opacity="0.2" d="M120.212 214.77H121.27V194.844H120.212V214.77Z" fill="black"/>
<path opacity="0.2" d="M117.897 214.77H118.955V194.844H117.897V214.77Z" fill="black"/>
<path opacity="0.2" d="M115.563 214.77H116.62V194.844H115.563V214.77Z" fill="black"/>
<path opacity="0.2" d="M113.248 214.77H114.305V194.844H113.248V214.77Z" fill="black"/>
<path opacity="0.2" d="M110.923 214.77H111.981V194.844H110.923V214.77Z" fill="black"/>
<path opacity="0.2" d="M108.599 214.77H109.656V194.844H108.599V214.77Z" fill="black"/>
<path opacity="0.2" d="M106.284 214.77H107.341V194.844H106.284V214.77Z" fill="black"/>
<path opacity="0.2" d="M103.95 214.77H105.007V194.844H103.95V214.77Z" fill="black"/>
<path opacity="0.2" d="M101.625 214.77H102.682V194.844H101.625V214.77Z" fill="black"/>
<path opacity="0.2" d="M99.3099 214.77H100.367V194.844H99.3099V214.77Z" fill="black"/>
<path opacity="0.2" d="M96.9855 214.77H98.043V194.844H96.9855V214.77Z" fill="black"/>
<path opacity="0.2" d="M94.6703 214.77H95.7278V194.844H94.6703V214.77Z" fill="black"/>
<path opacity="0.2" d="M92.3361 214.77H93.3936V194.844H92.3361V214.77Z" fill="black"/>
<path opacity="0.2" d="M90.0113 214.77H91.0688V194.844H90.0113V214.77Z" fill="black"/>
<path opacity="0.2" d="M87.6964 214.77H88.7539V194.844H87.6964V214.77Z" fill="black"/>
<path opacity="0.2" d="M85.3717 214.77H86.4292V194.844H85.3717V214.77Z" fill="black"/>
<path opacity="0.2" d="M83.0568 214.77H84.1143V194.844H83.0568V214.77Z" fill="black"/>
<path d="M125.204 237.336H167.171V215.644H125.204V237.336Z" fill="#FF772B"/>
<path d="M125.204 215.644H114.42V237.337H125.204V215.644Z" fill="#FF772B"/>
<path opacity="0.2" d="M125.204 215.644H114.42V237.337H125.204V215.644Z" fill="black"/>
<path opacity="0.2" d="M165.399 236.453H166.457V216.528H165.399V236.453Z" fill="black"/>
<path opacity="0.2" d="M163.074 236.453H164.132V216.528H163.074V236.453Z" fill="black"/>
<path opacity="0.2" d="M160.75 236.453H161.807V216.528H160.75V236.453Z" fill="black"/>
<path opacity="0.2" d="M158.435 236.453H159.492V216.528H158.435V236.453Z" fill="black"/>
<path opacity="0.2" d="M156.1 236.453H157.158V216.528H156.1V236.453Z" fill="black"/>
<path opacity="0.2" d="M153.786 236.453H154.843V216.528H153.786V236.453Z" fill="black"/>
<path opacity="0.2" d="M151.461 236.453H152.518V216.528H151.461V236.453Z" fill="black"/>
<path opacity="0.2" d="M149.136 236.453H150.194V216.528H149.136V236.453Z" fill="black"/>
<path opacity="0.2" d="M146.821 236.453H147.879V216.528H146.821V236.453Z" fill="black"/>
<path opacity="0.2" d="M144.487 236.453H145.545V216.528H144.487V236.453Z" fill="black"/>
<path opacity="0.2" d="M142.172 236.453H143.229V216.528H142.172V236.453Z" fill="black"/>
<path opacity="0.2" d="M139.848 236.453H140.905V216.528H139.848V236.453Z" fill="black"/>
<path opacity="0.2" d="M137.523 236.453H138.58V216.528H137.523V236.453Z" fill="black"/>
<path opacity="0.2" d="M135.208 236.453H136.265V216.528H135.208V236.453Z" fill="black"/>
<path opacity="0.2" d="M132.873 236.453H133.931V216.528H132.873V236.453Z" fill="black"/>
<path opacity="0.2" d="M130.549 236.453H131.606V216.528H130.549V236.453Z" fill="black"/>
<path opacity="0.2" d="M128.234 236.453H129.292V216.528H128.234V236.453Z" fill="black"/>
<path opacity="0.2" d="M125.909 236.453H126.967V216.528H125.909V236.453Z" fill="black"/>
<path d="M78.56 237.336H120.527V215.644H78.56V237.336Z" fill="#FF772B"/>
<path opacity="0.4" d="M78.56 237.336H120.527V215.644H78.56V237.336Z" fill="#FAFAFA"/>
<path d="M78.56 215.644H67.7754V237.337H78.56V215.644Z" fill="#FF772B"/>
<path opacity="0.4" d="M78.56 215.644H67.7754V237.337H78.56V215.644Z" fill="#FAFAFA"/>
<path opacity="0.2" d="M78.56 215.644H67.7754V237.337H78.56V215.644Z" fill="black"/>
<path opacity="0.2" d="M118.755 236.453H119.812V216.528H118.755V236.453Z" fill="black"/>
<path opacity="0.2" d="M116.43 236.453H117.488V216.528H116.43V236.453Z" fill="black"/>
<path opacity="0.2" d="M114.105 236.453H115.163V216.528H114.105V236.453Z" fill="black"/>
<path opacity="0.2" d="M111.79 236.453H112.848V216.528H111.79V236.453Z" fill="black"/>
<path opacity="0.2" d="M109.456 236.453H110.514V216.528H109.456V236.453Z" fill="black"/>
<path opacity="0.2" d="M107.141 236.453H108.199V216.528H107.141V236.453Z" fill="black"/>
<path opacity="0.2" d="M104.817 236.453H105.874V216.528H104.817V236.453Z" fill="black"/>
<path opacity="0.2" d="M102.492 236.453H103.549V216.528H102.492V236.453Z" fill="black"/>
<path opacity="0.2" d="M100.177 236.453H101.234V216.528H100.177V236.453Z" fill="black"/>
<path opacity="0.2" d="M97.8426 236.453H98.9001V216.528H97.8426V236.453Z" fill="black"/>
<path opacity="0.2" d="M95.5277 236.453H96.5852V216.528H95.5277V236.453Z" fill="black"/>
<path opacity="0.2" d="M93.2032 236.453H94.2607V216.528H93.2032V236.453Z" fill="black"/>
<path opacity="0.2" d="M90.8785 236.453H91.936V216.528H90.8785V236.453Z" fill="black"/>
<path opacity="0.2" d="M88.5633 236.453H89.6208V216.528H88.5633V236.453Z" fill="black"/>
<path opacity="0.2" d="M86.2291 236.453H87.2866V216.528H86.2291V236.453Z" fill="black"/>
<path opacity="0.2" d="M83.9047 236.453H84.9622V216.528H83.9047V236.453Z" fill="black"/>
<path opacity="0.2" d="M81.5897 236.453H82.6472V216.528H81.5897V236.453Z" fill="black"/>
<path opacity="0.2" d="M79.265 236.453H80.3225V216.528H79.265V236.453Z" fill="black"/>
<path d="M177.784 117.253H158.101V147.734H177.784V117.253Z" fill="#FF772B"/>
<path d="M177.784 120.35H158.101V123.495H177.784V120.35Z" fill="white"/>
<path d="M177.784 127.125H158.101V129.548H177.784V127.125Z" fill="white"/>
<path d="M140.572 117.253H120.889V147.734H140.572V117.253Z" fill="#FF772B"/>
<path d="M140.572 120.35H120.889V123.495H140.572V120.35Z" fill="white"/>
<path d="M140.572 127.125H120.889V129.548H140.572V127.125Z" fill="white"/>
<path d="M124.947 160.571H100.005V237.337H124.947V160.571Z" fill="#E0E0E0"/>
<path opacity="0.7" d="M119.669 171.052H102.778V172.705H119.669V171.052Z" fill="white"/>
<path opacity="0.7" d="M119.669 177.466H102.778V179.119H119.669V177.466Z" fill="white"/>
<path opacity="0.7" d="M119.669 183.87H102.778V185.523H119.669V183.87Z" fill="white"/>
<path opacity="0.7" d="M119.669 190.274H102.778V191.927H119.669V190.274Z" fill="white"/>
<path opacity="0.7" d="M119.669 196.678H102.778V198.332H119.669V196.678Z" fill="white"/>
<path opacity="0.7" d="M119.669 203.092H102.778V204.745H119.669V203.092Z" fill="white"/>
<path opacity="0.7" d="M119.669 209.496H102.778V211.149H119.669V209.496Z" fill="white"/>
<path opacity="0.7" d="M119.669 215.9H102.778V217.554H119.669V215.9Z" fill="white"/>
<path d="M124.947 237.327H193.646V160.562H124.947L124.947 237.327Z" fill="#FAFAFA"/>
<g opacity="0.8">
<path opacity="0.2" d="M133.417 169.009H132.502V172.81H133.417V169.009Z" fill="black"/>
<path opacity="0.2" d="M146.583 169.009H145.669V172.81H146.583V169.009Z" fill="black"/>
<path opacity="0.2" d="M159.75 169.009H158.835V172.81H159.75V169.009Z" fill="black"/>
<path opacity="0.2" d="M172.916 169.009H172.001V172.81H172.916V169.009Z" fill="black"/>
<path opacity="0.2" d="M186.082 169.009H185.168V172.81H186.082V169.009Z" fill="black"/>
<path opacity="0.2" d="M133.417 181.038H132.502V184.839H133.417V181.038Z" fill="black"/>
<path opacity="0.2" d="M146.583 181.038H145.669V184.839H146.583V181.038Z" fill="black"/>
<path opacity="0.2" d="M159.75 181.038H158.835V184.839H159.75V181.038Z" fill="black"/>
<path opacity="0.2" d="M172.916 181.038H172.001V184.839H172.916V181.038Z" fill="black"/>
<path opacity="0.2" d="M186.082 181.038H185.168V184.839H186.082V181.038Z" fill="black"/>
<path opacity="0.2" d="M133.417 193.058H132.502V196.859H133.417V193.058Z" fill="black"/>
<path opacity="0.2" d="M146.583 193.058H145.669V196.859H146.583V193.058Z" fill="black"/>
<path opacity="0.2" d="M159.75 193.058H158.835V196.859H159.75V193.058Z" fill="black"/>
<path opacity="0.2" d="M172.916 193.058H172.001V196.859H172.916V193.058Z" fill="black"/>
<path opacity="0.2" d="M186.082 193.058H185.168V196.859H186.082V193.058Z" fill="black"/>
<path opacity="0.2" d="M133.417 205.087H132.502V208.888H133.417V205.087Z" fill="black"/>
<path opacity="0.2" d="M146.583 205.087H145.669V208.888H146.583V205.087Z" fill="black"/>
<path opacity="0.2" d="M159.75 205.087H158.835V208.888H159.75V205.087Z" fill="black"/>
<path opacity="0.2" d="M172.916 205.087H172.001V208.888H172.916V205.087Z" fill="black"/>
<path opacity="0.2" d="M186.082 205.087H185.168V208.888H186.082V205.087Z" fill="black"/>
<path opacity="0.2" d="M133.417 217.107H132.502V220.908H133.417V217.107Z" fill="black"/>
<path opacity="0.2" d="M146.583 217.107H145.669V220.908H146.583V217.107Z" fill="black"/>
<path opacity="0.2" d="M159.75 217.107H158.835V220.908H159.75V217.107Z" fill="black"/>
<path opacity="0.2" d="M172.916 217.107H172.001V220.908H172.916V217.107Z" fill="black"/>
<path opacity="0.2" d="M186.082 217.107H185.168V220.908H186.082V217.107Z" fill="black"/>
<path opacity="0.2" d="M133.417 229.136H132.502V232.937H133.417V229.136Z" fill="black"/>
<path opacity="0.2" d="M146.583 229.136H145.669V232.937H146.583V229.136Z" fill="black"/>
<path opacity="0.2" d="M159.75 229.136H158.835V232.937H159.75V229.136Z" fill="black"/>
<path opacity="0.2" d="M172.916 229.136H172.001V232.937H172.916V229.136Z" fill="black"/>
<path opacity="0.2" d="M186.082 229.136H185.168V232.937H186.082V229.136Z" fill="black"/>
</g>
<path d="M128.777 143.364H108.199V160.562H128.777V143.364Z" fill="#E0E0E0"/>
<path d="M128.777 160.571H185.444V143.373H128.777V160.571Z" fill="#FAFAFA"/>
<g style="mix-blend-mode:multiply" opacity="0.1">
<path d="M108.208 146.813H185.453V143.373H108.208V146.813Z" fill="black"/>
</g>
<path opacity="0.2" d="M135.789 149.54H132.674V152.647H135.789V149.54Z" fill="black"/>
<path opacity="0.2" d="M140.362 149.54H137.247V152.647H140.362V149.54Z" fill="black"/>
<path opacity="0.2" d="M144.944 149.54H141.829V152.647H144.944V149.54Z" fill="black"/>
<path opacity="0.2" d="M149.517 149.54H146.402V152.647H149.517V149.54Z" fill="black"/>
<path opacity="0.2" d="M154.09 149.54H150.975V152.647H154.09V149.54Z" fill="black"/>
<path opacity="0.2" d="M158.663 149.54H155.548V152.647H158.663V149.54Z" fill="black"/>
<path opacity="0.2" d="M163.246 149.54H160.131V152.647H163.246V149.54Z" fill="black"/>
<path opacity="0.2" d="M167.819 149.54H164.703V152.647H167.819V149.54Z" fill="black"/>
<path opacity="0.2" d="M172.392 149.54H169.276V152.647H172.392V149.54Z" fill="black"/>
<path opacity="0.2" d="M176.965 149.54H173.849V152.647H176.965V149.54Z" fill="black"/>
<path opacity="0.2" d="M181.547 149.54H178.432V152.647H181.547V149.54Z" fill="black"/>
<path opacity="0.2" d="M135.789 154.053H132.674V157.16H135.789V154.053Z" fill="black"/>
<path opacity="0.2" d="M140.362 154.053H137.247V157.16H140.362V154.053Z" fill="black"/>
<path opacity="0.2" d="M144.944 154.053H141.829V157.16H144.944V154.053Z" fill="black"/>
<path opacity="0.2" d="M149.517 154.053H146.402V157.16H149.517V154.053Z" fill="black"/>
<path opacity="0.2" d="M154.09 154.053H150.975V157.16H154.09V154.053Z" fill="black"/>
<path opacity="0.2" d="M158.663 154.053H155.548V157.16H158.663V154.053Z" fill="black"/>
<path opacity="0.2" d="M163.246 154.053H160.131V157.16H163.246V154.053Z" fill="black"/>
<path opacity="0.2" d="M167.819 154.053H164.703V157.16H167.819V154.053Z" fill="black"/>
<path opacity="0.2" d="M172.392 154.053H169.276V157.16H172.392V154.053Z" fill="black"/>
<path opacity="0.2" d="M176.965 154.053H173.849V157.16H176.965V154.053Z" fill="black"/>
<path opacity="0.2" d="M181.547 154.053H178.432V157.16H181.547V154.053Z" fill="black"/>
<path d="M125.395 133.786H96.7375L100.968 143.363H125.395V133.786Z" fill="#E0E0E0"/>
<path d="M125.395 133.786H196.905L192.675 143.363H125.395V133.786Z" fill="#FAFAFA"/>
<path d="M254.515 237.336H310.639V215.644H254.515V237.336Z" fill="#FF772B"/>
<path opacity="0.4" d="M254.515 237.336H310.639V215.644H254.515V237.336Z" fill="#FAFAFA"/>
<path d="M254.515 215.644H240.101V237.337H254.515V215.644Z" fill="#FF772B"/>
<path opacity="0.4" d="M254.515 215.644H240.101V237.337H254.515V215.644Z" fill="#FAFAFA"/>
<path opacity="0.2" d="M254.515 215.644H240.101V237.337H254.515V215.644Z" fill="black"/>
<path opacity="0.2" d="M308.276 236.453H309.686V216.528H308.276V236.453Z" fill="black"/>
<path opacity="0.2" d="M305.17 236.453H306.58V216.528H305.17V236.453Z" fill="black"/>
<path opacity="0.2" d="M302.064 236.453H303.474V216.528H302.064V236.453Z" fill="black"/>
<path opacity="0.2" d="M298.958 236.453H300.368V216.528H298.958V236.453Z" fill="black"/>
<path opacity="0.2" d="M295.853 236.453H297.263V216.528H295.853V236.453Z" fill="black"/>
<path opacity="0.2" d="M292.747 236.453H294.157V216.528H292.747V236.453Z" fill="black"/>
<path opacity="0.2" d="M289.641 236.453H291.051V216.528H289.641V236.453Z" fill="black"/>
<path opacity="0.2" d="M286.535 236.453H287.945V216.528H286.535V236.453Z" fill="black"/>
<path opacity="0.2" d="M283.429 236.453H284.839V216.528H283.429V236.453Z" fill="black"/>
<path opacity="0.2" d="M280.323 236.453H281.733V216.528H280.323V236.453Z" fill="black"/>
<path opacity="0.2" d="M277.218 236.453H278.628V216.528H277.218V236.453Z" fill="black"/>
<path opacity="0.2" d="M274.112 236.453H275.522V216.528H274.112V236.453Z" fill="black"/>
<path opacity="0.2" d="M271.006 236.453H272.416V216.528H271.006V236.453Z" fill="black"/>
<path opacity="0.2" d="M267.9 236.453H269.31V216.528H267.9V236.453Z" fill="black"/>
<path opacity="0.2" d="M264.794 236.453H266.204V216.528H264.794V236.453Z" fill="black"/>
<path opacity="0.2" d="M261.689 236.453H263.099V216.528H261.689V236.453Z" fill="black"/>
<path opacity="0.2" d="M258.583 236.453H259.993V216.528H258.583V236.453Z" fill="black"/>
<path opacity="0.2" d="M255.477 236.453H256.887V216.528H255.477V236.453Z" fill="black"/>
<path d="M188.035 237.336H244.159V215.644H188.035V237.336Z" fill="#FF772B"/>
<path d="M188.035 215.644H173.621V237.337H188.035V215.644Z" fill="#FF772B"/>
<path opacity="0.2" d="M188.035 215.644H173.621V237.337H188.035V215.644Z" fill="black"/>
<path opacity="0.2" d="M241.796 236.453H243.206V216.528H241.796V236.453Z" fill="black"/>
<path opacity="0.2" d="M238.691 236.453H240.101V216.528H238.691V236.453Z" fill="black"/>
<path opacity="0.2" d="M235.585 236.453H236.995V216.528H235.585V236.453Z" fill="black"/>
<path opacity="0.2" d="M232.479 236.453H233.889V216.528H232.479V236.453Z" fill="black"/>
<path opacity="0.2" d="M229.373 236.453H230.783V216.528H229.373V236.453Z" fill="black"/>
<path opacity="0.2" d="M226.267 236.453H227.677V216.528H226.267V236.453Z" fill="black"/>
<path opacity="0.2" d="M223.161 236.453H224.571V216.528H223.161V236.453Z" fill="black"/>
<path opacity="0.2" d="M220.056 236.453H221.466V216.528H220.056V236.453Z" fill="black"/>
<path opacity="0.2" d="M216.95 236.453H218.36V216.528H216.95V236.453Z" fill="black"/>
<path opacity="0.2" d="M213.844 236.453H215.254V216.528H213.844V236.453Z" fill="black"/>
<path opacity="0.2" d="M210.738 236.453H212.148V216.528H210.738V236.453Z" fill="black"/>
<path opacity="0.2" d="M207.632 236.453H209.042V216.528H207.632V236.453Z" fill="black"/>
<path opacity="0.2" d="M204.526 236.453H205.936V216.528H204.526V236.453Z" fill="black"/>
<path opacity="0.2" d="M201.421 236.453H202.831V216.528H201.421V236.453Z" fill="black"/>
<path opacity="0.2" d="M198.315 236.453H199.725V216.528H198.315V236.453Z" fill="black"/>
<path opacity="0.2" d="M195.209 236.453H196.619V216.528H195.209V236.453Z" fill="black"/>
<path opacity="0.2" d="M192.103 236.453H193.513V216.528H192.103V236.453Z" fill="black"/>
<path opacity="0.2" d="M188.997 236.453H190.407V216.528H188.997V236.453Z" fill="black"/>
<path d="M245.359 215.653H301.483V193.961H245.359V215.653Z" fill="#FF772B"/>
<path d="M245.35 193.951H230.935V215.644H245.35V193.951Z" fill="#FF772B"/>
<path opacity="0.2" d="M245.35 193.951H230.935V215.644H245.35V193.951Z" fill="black"/>
<path opacity="0.2" d="M299.111 214.77H300.521V194.844H299.111V214.77Z" fill="black"/>
<path opacity="0.2" d="M296.005 214.77H297.415V194.844H296.005V214.77Z" fill="black"/>
<path opacity="0.2" d="M292.899 214.77H294.309V194.844H292.899V214.77Z" fill="black"/>
<path opacity="0.2" d="M289.793 214.77H291.203V194.844H289.793V214.77Z" fill="black"/>
<path opacity="0.2" d="M286.688 214.77H288.098V194.844H286.688V214.77Z" fill="black"/>
<path opacity="0.2" d="M283.582 214.77H284.992V194.844H283.582V214.77Z" fill="black"/>
<path opacity="0.2" d="M280.476 214.77H281.886V194.844H280.476V214.77Z" fill="black"/>
<path opacity="0.2" d="M277.37 214.77H278.78V194.844H277.37V214.77Z" fill="black"/>
<path opacity="0.2" d="M274.264 214.77H275.674V194.844H274.264V214.77Z" fill="black"/>
<path opacity="0.2" d="M271.159 214.77H272.569V194.844H271.159V214.77Z" fill="black"/>
<path opacity="0.2" d="M268.053 214.77H269.463V194.844H268.053V214.77Z" fill="black"/>
<path opacity="0.2" d="M264.947 214.77H266.357V194.844H264.947V214.77Z" fill="black"/>
<path opacity="0.2" d="M261.831 214.77H263.241V194.844H261.831V214.77Z" fill="black"/>
<path opacity="0.2" d="M258.726 214.77H260.136V194.844H258.726V214.77Z" fill="black"/>
<path opacity="0.2" d="M255.62 214.77H257.03V194.844H255.62V214.77Z" fill="black"/>
<path opacity="0.2" d="M252.514 214.77H253.924V194.844H252.514V214.77Z" fill="black"/>
<path opacity="0.2" d="M249.408 214.77H250.818V194.844H249.408V214.77Z" fill="black"/>
<path opacity="0.2" d="M246.303 214.77H247.713V194.844H246.303V214.77Z" fill="black"/>
<path d="M182.976 215.653H239.1V193.961H182.976V215.653Z" fill="#FF772B"/>
<path opacity="0.4" d="M182.976 215.653H239.1V193.961H182.976V215.653Z" fill="#FAFAFA"/>
<path d="M182.976 193.951H168.562V215.644H182.976V193.951Z" fill="#FF772B"/>
<path opacity="0.4" d="M182.976 193.951H168.562V215.644H182.976V193.951Z" fill="#FAFAFA"/>
<path opacity="0.2" d="M182.976 193.951H168.562V215.644H182.976V193.951Z" fill="black"/>
<path opacity="0.2" d="M236.737 214.77H238.147V194.844H236.737V214.77Z" fill="black"/>
<path opacity="0.2" d="M233.631 214.77H235.042V194.844H233.631V214.77Z" fill="black"/>
<path opacity="0.2" d="M230.526 214.77H231.936V194.844H230.526V214.77Z" fill="black"/>
<path opacity="0.2" d="M227.42 214.77H228.83V194.844H227.42V214.77Z" fill="black"/>
<path opacity="0.2" d="M224.314 214.77H225.724V194.844H224.314V214.77Z" fill="black"/>
<path opacity="0.2" d="M221.208 214.77H222.618V194.844H221.208V214.77Z" fill="black"/>
<path opacity="0.2" d="M218.103 214.77H219.513V194.844H218.103V214.77Z" fill="black"/>
<path opacity="0.2" d="M214.997 214.77H216.407V194.844H214.997V214.77Z" fill="black"/>
<path opacity="0.2" d="M211.891 214.77H213.301V194.844H211.891V214.77Z" fill="black"/>
<path opacity="0.2" d="M208.785 214.77H210.195V194.844H208.785V214.77Z" fill="black"/>
<path opacity="0.2" d="M205.679 214.77H207.089V194.844H205.679V214.77Z" fill="black"/>
<path opacity="0.2" d="M202.573 214.77H203.983V194.844H202.573V214.77Z" fill="black"/>
<path opacity="0.2" d="M199.468 214.77H200.878V194.844H199.468V214.77Z" fill="black"/>
<path opacity="0.2" d="M196.362 214.77H197.772V194.844H196.362V214.77Z" fill="black"/>
<path opacity="0.2" d="M193.256 214.77H194.666V194.844H193.256V214.77Z" fill="black"/>
<path opacity="0.2" d="M190.15 214.77H191.56V194.844H190.15V214.77Z" fill="black"/>
<path opacity="0.2" d="M187.044 214.77H188.454V194.844H187.044V214.77Z" fill="black"/>
<path opacity="0.2" d="M183.938 214.77H185.348V194.844H183.938V214.77Z" fill="black"/>
<path d="M236.337 220.566H76.064C75.955 220.548 75.8436 220.553 75.7364 220.579C75.6291 220.605 75.5281 220.652 75.4394 220.717C75.3506 220.783 75.2759 220.865 75.2195 220.96C75.1632 221.055 75.1264 221.16 75.1113 221.269V237.792C75.1574 237.959 75.2569 238.105 75.3946 238.21C75.5323 238.314 75.7005 238.371 75.8735 238.371C76.0465 238.371 76.2147 238.314 76.3524 238.21C76.4901 238.105 76.5896 237.959 76.6357 237.792V221.744H92.984V237.792C93.0301 237.959 93.1297 238.105 93.2673 238.21C93.405 238.314 93.5732 238.371 93.7462 238.371C93.9192 238.371 94.0874 238.314 94.2251 238.21C94.3628 238.105 94.4623 237.959 94.5084 237.792V221.744H110.809V237.792C110.855 237.959 110.955 238.105 111.092 238.21C111.23 238.314 111.398 238.371 111.571 238.371C111.744 238.371 111.913 238.314 112.05 238.21C112.188 238.105 112.287 237.959 112.333 237.792V221.744H128.615V237.792C128.661 237.959 128.761 238.105 128.898 238.21C129.036 238.314 129.204 238.371 129.377 238.371C129.55 238.371 129.719 238.314 129.856 238.21C129.994 238.105 130.093 237.959 130.139 237.792V221.744H146.431V237.792C146.474 237.963 146.572 238.114 146.711 238.222C146.85 238.33 147.021 238.389 147.198 238.389C147.374 238.389 147.545 238.33 147.684 238.222C147.823 238.114 147.922 237.963 147.965 237.792V221.744H164.256V237.792C164.302 237.959 164.401 238.105 164.539 238.21C164.677 238.314 164.845 238.371 165.018 238.371C165.191 238.371 165.359 238.314 165.497 238.21C165.635 238.105 165.734 237.959 165.78 237.792V221.744H182.081V237.792C182.127 237.959 182.226 238.105 182.364 238.21C182.502 238.314 182.67 238.371 182.843 238.371C183.016 238.371 183.184 238.314 183.322 238.21C183.46 238.105 183.559 237.959 183.605 237.792V221.744H199.906V237.792C199.952 237.959 200.052 238.105 200.189 238.21C200.327 238.314 200.495 238.371 200.668 238.371C200.841 238.371 201.009 238.314 201.147 238.21C201.285 238.105 201.384 237.959 201.43 237.792V221.744H217.731V237.792C217.777 237.959 217.877 238.105 218.014 238.21C218.152 238.314 218.32 238.371 218.493 238.371C218.666 238.371 218.834 238.314 218.972 238.21C219.11 238.105 219.209 237.959 219.255 237.792V221.744H235.547V237.792C235.593 237.959 235.692 238.105 235.83 238.21C235.968 238.314 236.136 238.371 236.309 238.371C236.482 238.371 236.65 238.314 236.788 238.21C236.925 238.105 237.025 237.959 237.071 237.792V221.155C237.045 220.983 236.955 220.827 236.819 220.718C236.683 220.608 236.511 220.554 236.337 220.566Z" fill="#FF772B"/>
<path opacity="0.6" d="M236.337 220.566H76.064C75.955 220.548 75.8436 220.553 75.7364 220.579C75.6291 220.605 75.5281 220.652 75.4394 220.717C75.3506 220.783 75.2759 220.865 75.2195 220.96C75.1632 221.055 75.1264 221.16 75.1113 221.269V237.792C75.1574 237.959 75.2569 238.105 75.3946 238.21C75.5323 238.314 75.7005 238.371 75.8735 238.371C76.0465 238.371 76.2147 238.314 76.3524 238.21C76.4901 238.105 76.5896 237.959 76.6357 237.792V221.744H92.984V237.792C93.0301 237.959 93.1297 238.105 93.2673 238.21C93.405 238.314 93.5732 238.371 93.7462 238.371C93.9192 238.371 94.0874 238.314 94.2251 238.21C94.3628 238.105 94.4623 237.959 94.5084 237.792V221.744H110.809V237.792C110.855 237.959 110.955 238.105 111.092 238.21C111.23 238.314 111.398 238.371 111.571 238.371C111.744 238.371 111.913 238.314 112.05 238.21C112.188 238.105 112.287 237.959 112.333 237.792V221.744H128.615V237.792C128.661 237.959 128.761 238.105 128.898 238.21C129.036 238.314 129.204 238.371 129.377 238.371C129.55 238.371 129.719 238.314 129.856 238.21C129.994 238.105 130.093 237.959 130.139 237.792V221.744H146.431V237.792C146.474 237.963 146.572 238.114 146.711 238.222C146.85 238.33 147.021 238.389 147.198 238.389C147.374 238.389 147.545 238.33 147.684 238.222C147.823 238.114 147.922 237.963 147.965 237.792V221.744H164.256V237.792C164.302 237.959 164.401 238.105 164.539 238.21C164.677 238.314 164.845 238.371 165.018 238.371C165.191 238.371 165.359 238.314 165.497 238.21C165.635 238.105 165.734 237.959 165.78 237.792V221.744H182.081V237.792C182.127 237.959 182.226 238.105 182.364 238.21C182.502 238.314 182.67 238.371 182.843 238.371C183.016 238.371 183.184 238.314 183.322 238.21C183.46 238.105 183.559 237.959 183.605 237.792V221.744H199.906V237.792C199.952 237.959 200.052 238.105 200.189 238.21C200.327 238.314 200.495 238.371 200.668 238.371C200.841 238.371 201.009 238.314 201.147 238.21C201.285 238.105 201.384 237.959 201.43 237.792V221.744H217.731V237.792C217.777 237.959 217.877 238.105 218.014 238.21C218.152 238.314 218.32 238.371 218.493 238.371C218.666 238.371 218.834 238.314 218.972 238.21C219.11 238.105 219.209 237.959 219.255 237.792V221.744H235.547V237.792C235.593 237.959 235.692 238.105 235.83 238.21C235.968 238.314 236.136 238.371 236.309 238.371C236.482 238.371 236.65 238.314 236.788 238.21C236.925 238.105 237.025 237.959 237.071 237.792V221.155C237.045 220.983 236.955 220.827 236.819 220.718C236.683 220.608 236.511 220.554 236.337 220.566Z" fill="#FAFAFA"/>
<path d="M271.33 237.336C274.556 237.336 277.681 236.218 280.171 234.172L309.819 209.819C312.312 207.772 315.441 206.653 318.67 206.655H445.379C445.756 206.657 446.128 206.74 446.47 206.899C446.811 207.059 447.113 207.29 447.356 207.577C447.599 207.865 447.776 208.201 447.876 208.564C447.975 208.926 447.995 209.306 447.933 209.677C444.074 233.222 436.872 248.72 428.526 262.326C427.221 264.464 425.887 266.555 424.534 268.626L423.191 270.65C421.781 272.759 420.333 274.85 418.942 276.95C413.346 284.914 408.162 293.16 403.413 301.654C398.451 310.794 394.38 320.387 391.256 330.302C390.05 334.063 387.675 337.344 384.476 339.67C381.277 341.997 377.419 343.248 373.46 343.244H92.136C87.8295 343.246 83.6552 341.76 80.3237 339.038C76.9921 336.317 74.7091 332.528 73.8632 328.316L68.4899 301.607L63.5359 276.95L62.2688 270.65L61.8591 268.626L60.6015 262.326L56.2096 240.396C56.1351 240.022 56.1445 239.636 56.2372 239.266C56.33 238.896 56.5037 238.551 56.7459 238.255C56.9882 237.96 57.293 237.722 57.6384 237.558C57.9838 237.395 58.3613 237.309 58.7438 237.308L271.33 237.336ZM406.804 217.297C407.071 217.569 407.39 217.784 407.742 217.931C408.094 218.078 408.471 218.153 408.853 218.152H433.013C433.787 218.152 434.528 217.846 435.075 217.301C435.621 216.755 435.929 216.016 435.929 215.245C435.929 214.474 435.621 213.734 435.075 213.189C434.528 212.643 433.787 212.337 433.013 212.337H408.805C408.033 212.34 407.293 212.647 406.747 213.192C406.2 213.736 405.892 214.474 405.89 215.245C405.895 215.631 405.979 216.012 406.136 216.365C406.293 216.717 406.521 217.035 406.804 217.297ZM355.673 213.192C355.128 212.647 354.388 212.339 353.615 212.337H329.407C328.829 212.334 328.264 212.503 327.783 212.821C327.302 213.14 326.927 213.595 326.706 214.127C326.485 214.659 326.428 215.245 326.543 215.81C326.657 216.375 326.938 216.892 327.349 217.297C327.617 217.57 327.937 217.786 328.291 217.933C328.644 218.08 329.024 218.154 329.407 218.152H353.567C354.145 218.155 354.71 217.987 355.191 217.668C355.673 217.349 356.047 216.895 356.268 216.362C356.489 215.83 356.546 215.244 356.431 214.68C356.317 214.115 356.036 213.597 355.625 213.192H355.673ZM395.372 213.192C395.104 212.92 394.784 212.703 394.43 212.556C394.077 212.409 393.697 212.335 393.314 212.337H369.106C368.528 212.334 367.963 212.503 367.482 212.821C367.001 213.14 366.626 213.595 366.405 214.127C366.184 214.659 366.127 215.245 366.242 215.81C366.357 216.375 366.637 216.892 367.048 217.297C367.316 217.57 367.637 217.786 367.99 217.933C368.344 218.08 368.723 218.154 369.106 218.152H393.267C393.844 218.155 394.41 217.987 394.891 217.668C395.372 217.349 395.747 216.895 395.967 216.362C396.188 215.83 396.245 215.244 396.131 214.68C396.016 214.115 395.735 213.597 395.324 213.192H395.372Z" fill="#FF772B"/>
<path opacity="0.3" d="M61.8591 268.626L62.2688 270.65L63.5359 276.95H418.952C420.381 274.85 421.81 272.759 423.201 270.65L424.544 268.626H61.8591Z" fill="black"/>
<path opacity="0.3" d="M283.725 261.528H323.996C327.652 261.528 330.617 258.572 330.617 254.925V254.915C330.617 251.268 327.652 248.311 323.996 248.311H283.725C280.068 248.311 277.104 251.268 277.104 254.915V254.925C277.104 258.572 280.068 261.528 283.725 261.528Z" fill="black"/>
<path opacity="0.3" d="M217.741 261.528H258.011C261.668 261.528 264.633 258.572 264.633 254.925V254.915C264.633 251.268 261.668 248.311 258.011 248.311H217.741C214.084 248.311 211.119 251.268 211.119 254.915V254.925C211.119 258.572 214.084 261.528 217.741 261.528Z" fill="black"/>
<path opacity="0.3" d="M349.699 261.528H389.97C393.627 261.528 396.591 258.572 396.591 254.925V254.915C396.591 251.268 393.627 248.311 389.97 248.311H349.699C346.042 248.311 343.078 251.268 343.078 254.915V254.925C343.078 258.572 346.042 261.528 349.699 261.528Z" fill="black"/>
<path opacity="0.3" d="M391.266 330.264C390.066 334.034 387.692 337.324 384.491 339.658C381.289 341.992 377.426 343.248 373.46 343.244H92.1361C87.8296 343.246 83.6553 341.76 80.3237 339.039C76.9921 336.317 74.7091 332.528 73.8632 328.317L68.49 301.607H403.422C398.462 310.75 394.391 320.347 391.266 330.264Z" fill="black"/>
</svg>
