<svg width="475" height="470" viewBox="0 0 475 470" fill="none" xmlns="http://www.w3.org/2000/svg">
<path d="M425.571 302.757C425.571 302.757 436.565 302.757 448.745 285.716C459.336 270.888 439.213 224.913 427.849 214.343C416.484 203.773 394.465 261.515 397.028 276.142C400.682 296.996 416.378 302.249 425.571 302.757Z" fill="#FF772B"/>
<path d="M437.126 239.052L425.169 247.684L424.46 224.68L423.199 226.268C423.199 226.268 423.093 243.585 422.977 265.106L409.028 255.394C409.198 255.563 410.966 257.247 409.982 257.247L422.945 269.681C422.881 281.543 422.818 292.812 422.754 302.514C422.754 311.22 422.67 318.665 422.638 324.109L427.838 325.168L426.938 302.694L426.482 291.118L443.428 274.299C442.009 274.299 444.54 271.895 444.784 271.651L426.324 284.943L425.264 251.793L436.152 240.969C435.22 240.969 436.766 239.444 437.074 239.158" fill="white"/>
<path d="M434.553 340.938C404.495 384.616 359.864 423.75 307.544 443.1C205.573 399.189 124.679 380.612 66.9995 373.283C54.7875 360.014 43.8285 345.645 34.2625 330.358C83.6593 315.816 214.576 290.779 434.553 340.938Z" fill="#BFBFBF"/>
<path d="M34.2625 330.358L34.5272 330.294L36.5713 329.701L37.0267 329.574L39.6851 328.833H39.8016L42.0681 328.218C43.6038 327.795 45.2454 327.382 46.8659 326.969L48.1262 326.651C49.7043 326.248 51.3035 325.857 53.0299 325.465L54.735 325.062L56.1225 324.745L57.6476 324.406L58.9715 324.12C59.8929 323.908 60.8355 323.707 61.7993 323.505L62.0853 323.442L62.583 323.336L63.3986 323.166L64.8072 322.87L66.9254 322.446L68.048 322.213L69.1072 322.001L71.2254 321.588L74.5192 320.974L77.9084 320.36L78.6074 320.233L79.9101 320.01L85.5763 319.057L88.0546 318.665H88.2135L88.5842 318.612L89.1455 318.528L93.9962 317.797H94.2398L94.9388 317.691L95.6802 317.585L96.464 317.479L97.9997 317.257H98.1056C100.912 316.875 103.793 316.494 106.748 316.134L109.406 315.816L114.85 315.202H114.956L117.625 314.927L120.654 314.619L123.98 314.302L127.083 314.016L130.355 313.73L133.385 313.476C137.946 313.115 142.641 312.794 147.471 312.512L150.404 312.342L154.249 312.141L159.545 311.908H160.244L161.917 311.845C162.785 311.802 163.654 311.77 164.522 311.749C166.535 311.675 168.558 311.612 170.602 311.559L174.044 311.474L177.539 311.4H177.931H181.108C186.361 311.329 191.749 311.311 197.27 311.347H200.977H202.82L206.505 311.4L209.079 311.453H209.153L213.39 311.548L215.646 311.612L217.954 311.675L220.655 311.76H220.708L222.953 311.845H224.203L225.538 311.898L229.446 312.056L231.342 312.141L232.793 312.205L238.014 312.469L241.403 312.66L246.169 312.935H246.677L251.475 313.253L252.64 313.327L254.271 313.444L257.851 313.698C260.675 313.91 263.563 314.136 266.515 314.376H267.086L269.607 314.588C272.318 314.821 275.051 315.068 277.805 315.329L279.859 315.52L281.459 315.679L288.417 316.378L292.547 316.812L296.996 317.31C303.075 318.016 309.257 318.761 315.541 319.544L320.201 320.159L324.766 320.783L329.521 321.451L334.319 322.139C336.818 322.51 339.339 322.88 341.881 323.272L343.999 323.601L348.903 324.374L353.849 325.168L361.993 326.534L364.652 326.99L368.295 327.615L374.724 328.769L378.78 329.511L382.381 330.167L386.967 331.046L391.087 331.841C395.775 332.751 400.517 333.698 405.311 334.679L409.484 335.547L411.221 335.907L411.697 336.013C416.64 337.044 421.603 338.103 426.588 339.191L429.85 339.922L434.458 340.981" stroke="#263238" stroke-linecap="round" stroke-linejoin="round"/>
<path d="M66.9994 373.283C48.6196 370.908 30.1258 369.519 11.5974 369.121" stroke="#263238" stroke-linecap="round" stroke-linejoin="round"/>
<path d="M307.544 443.1C205.573 399.189 124.678 380.612 66.9993 373.283" stroke="#263238" stroke-linecap="round" stroke-linejoin="round"/>
<path d="M364.006 469.037C344.518 459.526 325.698 450.877 307.544 443.089" stroke="#263238" stroke-linecap="round" stroke-linejoin="round"/>
<path d="M254.483 401.869C266.712 406.402 278.673 411.259 290.366 416.442" stroke="#263238" stroke-miterlimit="10"/>
<path d="M177.698 377.784C201.898 384.076 225.474 391.32 248.245 399.57" stroke="#263238" stroke-miterlimit="10"/>
<path d="M127.549 366.208C141.614 369.068 155.513 372.207 169.246 375.624" stroke="#263238" stroke-miterlimit="10"/>
<path d="M115.74 363.889L122.041 365.107" stroke="#263238" stroke-miterlimit="10"/>
<path d="M282.412 386.427C315.214 396.293 347.156 408.818 377.922 423.877" stroke="#263238" stroke-miterlimit="10"/>
<path d="M272.223 383.493C274.341 384.076 276.385 384.679 278.461 385.294" stroke="#263238" stroke-miterlimit="10"/>
<path d="M241.668 375.688C248.848 377.333 256.001 379.098 263.125 380.983" stroke="#263238" stroke-miterlimit="10"/>
<path d="M146.009 363.507C153.539 365.022 163.781 367.066 171.343 368.517" stroke="#263238" stroke-miterlimit="10"/>
<path d="M115.74 357.471C124.213 359.102 133.745 361.019 143.541 362.999" stroke="#263238" stroke-miterlimit="10"/>
<path d="M104.863 355.511C107.404 355.956 109.964 356.419 112.541 356.899" stroke="#263238" stroke-miterlimit="10"/>
<path d="M36.55 348.828C56.1835 348.948 75.7758 350.638 95.14 353.88" stroke="#263238" stroke-miterlimit="10"/>
<path d="M408.319 353.732C406.2 353.298 404.082 352.864 401.911 352.451L400.852 352.239L400.195 352.112C386.78 349.513 373.319 347.36 359.811 345.651C353.923 344.903 348.027 344.242 342.124 343.67C333.44 342.802 324.741 342.128 316.028 341.648H315.975L310.944 341.383" stroke="#263238" stroke-miterlimit="10"/>
<path d="M422.754 356.899C419.584 356.193 416.407 355.487 413.222 354.781" stroke="#263238" stroke-miterlimit="10"/>
<path d="M442.877 328.176L436.798 326.926L431.968 325.951L427.838 325.136L422.638 324.077L421.695 323.897L417.077 323.018C413.935 322.425 410.811 321.846 407.704 321.281L407.037 321.164L402.08 320.275L400.481 319.978H400.386L398.109 319.576L394.412 318.94C391.436 318.432 388.471 317.934 385.537 317.457L381.301 316.769L380.888 316.705L376.746 316.049C373.844 315.59 370.957 315.149 368.083 314.725L365.965 314.407L363.846 314.089L361.209 313.708L359.589 313.475L355.352 312.882L351.116 312.3L346.255 311.653C343.268 311.251 340.313 310.88 337.379 310.52C331.999 309.857 326.704 309.239 321.493 308.667L320.031 308.508H319.756L317.892 308.307C313.804 307.876 309.765 307.47 305.775 307.089L304.197 306.94L299.696 306.527L295.248 306.136C292.515 305.903 289.815 305.68 287.125 305.479L282.094 305.098L277.783 304.801C274.86 304.6 271.958 304.42 269.077 304.24L262.723 303.88L259.545 303.721L254.25 303.467L250.162 303.297L247.08 303.181L244.019 303.075L238.384 302.895L234.963 302.81L231.987 302.746L226.904 302.651H223.165H217.499H217.414C191.19 302.535 167.636 303.625 146.591 305.447C143.065 305.744 139.601 306.072 136.223 306.421C135.089 306.527 133.977 306.644 132.865 306.771C129.529 307.121 126.267 307.502 123.079 307.894C122.02 308.01 121.024 308.148 120.018 308.275H119.912L119.256 308.36L117.212 308.635L115.39 308.879L110.974 309.493L108.569 309.842L103.761 310.573L99.0903 311.325C97.7559 311.548 96.4426 311.759 95.1504 311.992L93.0322 312.353L92.5874 312.437C90.5539 312.797 88.5628 313.15 86.614 313.496H86.4763C80.4112 314.654 74.7343 315.837 69.4459 317.044C68.8104 317.171 68.1855 317.32 67.5606 317.468L65.7178 317.902L65.1353 318.04L63.0806 318.527L62.4663 318.675H62.2757L60.3799 319.141L58.1134 319.713L56.7789 320.052C53.9299 320.794 51.2186 321.524 48.6661 322.245L46.6009 322.838L44.5992 323.42L43.0634 323.876C42.0043 324.204 40.9452 324.522 39.8861 324.85C38.6364 325.231 37.4396 325.613 36.2851 325.994C34.9401 326.428 33.6586 326.841 32.4512 327.254" stroke="#263238" stroke-miterlimit="10"/>
<path d="M110.878 309.377C89.8424 312.285 69.0211 316.577 48.5496 322.224L46.6326 322.425L32.7583 221.735C33.8174 220.613 58.5158 187.166 93.2864 187.632L110.878 309.377Z" stroke="#263238" stroke-miterlimit="10"/>
<path d="M351.063 312.289C266.482 300.83 198.551 300.798 146.496 305.32L141.624 234.116C141.624 234.116 227.412 174.997 346.032 196.804L351.063 312.289Z" stroke="#263238" stroke-miterlimit="10"/>
<path d="M36.1052 237.876C38.2234 233.354 68.9376 208.221 88.6794 208.539" stroke="#263238" stroke-miterlimit="10"/>
<path d="M38.2126 254.78C41.7501 250.543 73.1633 228.302 91.9201 228.969" stroke="#263238" stroke-miterlimit="10"/>
<path d="M40.3098 271.694C45.2453 267.701 77.3786 248.478 95.1611 249.452" stroke="#263238" stroke-miterlimit="10"/>
<path d="M42.4175 288.608C48.7721 284.88 81.5198 268.601 98.402 269.851" stroke="#263238" stroke-miterlimit="10"/>
<path d="M44.5249 305.511C52.2352 302.048 85.7031 288.724 101.653 290.281" stroke="#263238" stroke-miterlimit="10"/>
<path d="M147.576 239.211L149.546 269.565" stroke="#263238" stroke-miterlimit="10"/>
<path d="M169.224 229.446L171.268 254.388" stroke="#263238" stroke-miterlimit="10"/>
<path d="M193.796 219.554L195.988 245.883" stroke="#263238" stroke-miterlimit="10"/>
<path d="M224.055 211.589L226.925 243.013" stroke="#263238" stroke-miterlimit="10"/>
<path d="M259.588 206.399L262.225 243.511" stroke="#263238" stroke-miterlimit="10"/>
<path d="M296.381 205.203L298.605 250.194" stroke="#263238" stroke-miterlimit="10"/>
<path d="M332.338 208.835L333.503 232.718" stroke="#263238" stroke-miterlimit="10"/>
<path d="M68.2493 349.569L80.4291 349.845C80.4291 349.845 61.1003 318.76 65.6015 309.111C70.0392 299.632 56.4826 316.525 65.951 347.822C66.109 348.313 66.4142 348.745 66.8252 349.057C67.2362 349.37 67.7334 349.549 68.2493 349.569Z" fill="#263238" stroke="#263238" stroke-miterlimit="10"/>
<path d="M289.667 372.659C289.667 372.659 287.654 365.997 283.312 365.467C278.97 364.938 285.886 352.059 284.625 337.591C284.636 337.549 288.321 348.299 289.667 372.659Z" fill="#263238" stroke="#263238" stroke-linecap="round" stroke-linejoin="round"/>
<path d="M219.67 370.191H239.92C239.92 370.191 230.176 311.018 231.066 306.115C233.173 294.486 196.571 312.882 219.67 370.191Z" fill="#263238" stroke="#263238" stroke-miterlimit="10"/>
<path d="M105.074 350.576C100.234 352.578 81.6359 351.783 81.6359 351.783C91.3056 351.783 98.1792 340.567 96.9718 326.756C95.9127 314.778 89.1556 304.769 81.0852 302.312C98.3169 300.321 109.914 348.553 105.074 350.576Z" fill="#263238" stroke="#263238" stroke-miterlimit="10"/>
<path d="M249.939 379.172C249.939 379.172 257.226 381.427 281.713 373.135C286.479 371.525 290.863 363.698 289.01 354.505C287.156 345.312 284.392 320.137 262.236 310.171C240.079 300.204 249.939 379.172 249.939 379.172Z" fill="#263238" stroke="#263238" stroke-miterlimit="10"/>
<path d="M257.308 378.162C274.07 373.276 282.865 352.868 276.951 332.578C271.037 312.289 252.655 299.802 235.892 304.688C219.129 309.574 210.335 329.982 216.248 350.272C222.162 370.561 240.545 383.048 257.308 378.162Z" fill="#5C5C5C" stroke="#263238" stroke-linecap="round" stroke-linejoin="round"/>
<path d="M270.359 340.08C271.291 350.671 267.478 359.96 260.986 365.329C257.188 368.531 252.375 370.277 247.408 370.254C233.28 370.254 220.644 356.74 219.183 340.08C217.721 323.42 227.995 309.896 242.123 309.896C248.812 310.051 255.177 312.81 259.863 317.585C265.93 323.593 269.652 331.571 270.359 340.08V340.08Z" fill="#263238" stroke="#263238" stroke-miterlimit="10"/>
<path d="M269.3 340.08C270.232 350.671 266.419 359.959 259.927 365.329C258.673 365.616 257.39 365.759 256.103 365.753C244.506 365.753 234.137 354.653 232.941 340.97C231.744 327.286 240.164 316.197 251.761 316.197C254.175 316.2 256.566 316.668 258.804 317.574C264.873 323.585 268.595 331.567 269.3 340.08V340.08Z" fill="#BFBFBF"/>
<path d="M406.899 323.389C406.762 323.696 406.645 323.982 406.518 324.236C394.868 325.613 365.509 329.532 357.005 332.529C397.738 313.571 405.787 320.614 406.719 323.579L406.783 323.23L406.899 323.389Z" fill="#263238" stroke="#263238" stroke-miterlimit="10"/>
<path d="M410.596 326.831C408.117 327.657 405.109 328.557 401.508 329.478C388.153 332.889 365.711 336.108 365.711 336.108C361.368 338.523 358.032 351.455 354.706 359.462C354.262 360.521 353.806 361.58 353.351 362.427C352.765 363.494 351.977 364.436 351.031 365.202C350.495 365.678 349.921 366.11 349.316 366.494V366.494C330.252 366.674 328.705 363.02 328.705 363.02C322.721 353.488 318.803 346.668 316.261 341.955L316.451 342.241C316.674 342.558 316.896 342.876 317.129 343.162C317.362 343.448 317.585 343.755 317.828 344.02C318.072 344.285 318.22 344.475 318.421 344.687C318.612 344.888 318.803 345.09 319.004 345.28C326.725 352.694 336.193 348.076 343.628 342.558C348.871 338.671 353.107 334.329 355.014 333.418L357.005 332.486C365.478 329.5 394.857 325.57 406.518 324.193H407.016C406.91 324.829 409.367 326.195 410.596 326.831Z" fill="#5C5C5C" stroke="#263238" stroke-linecap="round" stroke-linejoin="round"/>
<path d="M357.005 332.528L355.014 333.46C355.628 333.054 356.299 332.739 357.005 332.528Z" fill="white" stroke="#263238" stroke-miterlimit="10"/>
<path d="M411.263 327.17C411.492 332.156 411.383 337.153 410.934 342.124C403.722 341.934 399.867 352.631 398.998 355.363C388.915 358.308 375.761 361.326 366.06 363.412H366.028C363.327 363.995 360.902 364.472 358.89 364.916H358.816C355.638 365.594 353.457 365.975 352.927 366.113L351.01 366.463L348.701 366.886C329.386 370.207 309.853 372.108 290.259 372.574C289.926 367.13 289.286 361.709 288.342 356.338C287.089 348.936 284.955 341.712 281.988 334.816L310.584 332.995H310.785L311.844 332.921C311.844 332.921 311.844 332.995 311.918 333.132C311.943 333.184 311.964 333.237 311.982 333.291C312.352 334.35 312.744 335.282 313.136 336.193L313.581 337.189L314.036 338.131L314.386 338.809C314.502 339.042 314.619 339.265 314.746 339.477C314.873 339.688 315.106 340.123 315.286 340.43C315.466 340.737 315.731 341.161 315.943 341.489C316.049 341.644 316.155 341.792 316.261 341.934C318.802 346.647 322.721 353.489 328.705 362.999C328.705 362.999 330.294 366.653 349.315 366.473C349.921 366.089 350.495 365.657 351.031 365.181C351.977 364.415 352.764 363.473 353.351 362.406C353.806 361.538 354.261 360.542 354.706 359.441C358.032 351.434 361.368 338.502 365.71 336.087C365.71 336.087 388.153 332.91 401.508 329.457C405.109 328.536 408.117 327.636 410.595 326.81C410.998 327.053 411.263 327.17 411.263 327.17Z" fill="#263238" stroke="#263238" stroke-miterlimit="10"/>
<path d="M103.369 350.491C103.308 347.296 103.014 344.111 102.49 340.959C107.574 343.077 110.433 343.225 114.469 344.083C116.449 344.507 120.251 345.142 125.166 345.767C143.499 348.161 177.486 350.639 192.345 342.876C192.596 342.817 192.851 342.775 193.107 342.749V342.749C195.512 342.473 203.275 341.753 213.23 340.853C214.154 350.87 216.324 360.732 219.691 370.212L103.369 350.491Z" fill="#263238" stroke="#263238" stroke-miterlimit="10"/>
<path d="M406.433 309.207C406.837 310.319 407.089 311.481 407.185 312.66V312.66C407.314 313.817 407.367 314.981 407.344 316.144C407.298 318.512 407.11 320.874 406.783 323.219L406.899 323.378L407.408 324.172C407.588 322.99 407.701 321.798 407.747 320.603C407.747 319.544 407.81 318.368 407.747 317.182C407.781 314.467 407.337 311.767 406.433 309.207V309.207Z" stroke="#263238" stroke-linecap="round" stroke-linejoin="round"/>
<path d="M423.443 259.641C415.796 273.314 404.823 276.523 404.823 276.523C402.786 275.311 400.575 274.418 398.268 273.875C391.592 272.31 384.776 271.426 377.922 271.238C378.335 271.238 378.738 271.174 379.151 271.164L383.196 271.291C383.196 271.291 385.399 270.496 387.973 266.207C388.388 265.534 388.742 264.825 389.032 264.089C389.557 262.813 389.557 261.382 389.032 260.107C394.328 260.626 409.452 261.293 418.592 253.402C420.371 251.867 419.704 249.261 417.67 247.683C417.44 247.507 417.199 247.345 416.95 247.196C418.645 247.08 430.549 246.942 423.443 259.641Z" fill="#FF772B" stroke="#263238" stroke-miterlimit="10"/>
<path d="M292.007 255.224L322.859 264.047C319.47 273.632 314.831 278.144 311.612 280.23L288.459 281.215C278.292 281.893 267.849 282.729 257.925 283.757C225.675 287.082 214.502 306.263 214.502 306.263C192.345 333.207 119.786 317.129 119.786 317.129C111.461 313.952 111.313 312.702 105.869 306.867C103.073 303.89 100.997 300.279 98.0951 297.387C95.8498 295.174 89.3151 290.885 83.2676 289.974L81.1282 290.048C81.2235 289.931 81.2447 289.836 81.1917 289.794C79.9526 289.381 128.333 286.034 131.542 284.826L134.031 279.478C134.893 277.652 136.295 276.134 138.046 275.128C139.798 274.123 141.815 273.678 143.827 273.854C145.617 273.971 147.111 274.066 147.365 274.108C148.011 273.632 168.865 258.328 192.377 251.2C216.271 243.966 234.074 249.992 246 248.393C257.925 246.794 282.656 247.715 282.656 247.715L279.277 252.015L292.007 255.224Z" fill="#FF772B" stroke="#263238" stroke-miterlimit="10"/>
<path d="M322.435 265.212V265.275C321.896 266.72 321.277 268.134 320.582 269.511V269.511L320.529 269.617C320.158 270.327 319.788 271.005 319.417 271.64C319.247 271.93 319.078 272.205 318.908 272.466C318.411 273.282 317.849 274.023 317.383 274.701C317.076 275.104 316.78 275.495 316.472 275.856L316.367 275.972C316.197 276.173 316.028 276.375 315.858 276.555L315.731 276.703C315.435 277.031 315.149 277.328 314.863 277.603L314.291 278.154C313.994 278.419 313.708 278.673 313.422 278.906L312.924 279.308L312.511 279.615C312.215 279.838 311.929 280.028 311.654 280.209L341.245 278.938C342.039 278.355 342.855 277.878 343.692 277.338C340.896 278.789 339.063 279.88 339.953 277.72C339.99 277.627 340.037 277.539 340.091 277.455C341.595 274.553 348.564 270.041 348.564 270.041H348.701C350.205 269.469 357.365 265.805 361.718 253.339H361.855C363.613 247.283 363.997 240.911 362.978 234.688C362.247 233.629 360.754 232.707 357.682 233.089C351.9 233.82 332.147 237.802 327.625 238.713H327.519C326.41 238.931 325.358 239.378 324.43 240.024C323.502 240.67 322.718 241.502 322.128 242.466C321.537 243.431 321.154 244.507 321.001 245.628C320.848 246.748 320.929 247.888 321.238 248.975C321.652 250.405 322.065 251.771 322.446 253.032C322.446 253.032 322.626 253.614 322.891 254.419C323.872 257.539 323.872 260.885 322.891 264.004" fill="#FF772B"/>
<path d="M322.435 265.212V265.275C321.896 266.72 321.277 268.134 320.582 269.511V269.511L320.529 269.617C320.158 270.327 319.788 271.005 319.417 271.64C319.247 271.93 319.078 272.205 318.908 272.466C318.411 273.282 317.849 274.023 317.383 274.701C317.076 275.104 316.78 275.495 316.472 275.856L316.367 275.972C316.197 276.173 316.028 276.375 315.858 276.555L315.731 276.703C315.435 277.031 315.149 277.328 314.863 277.603L314.291 278.154C313.994 278.419 313.708 278.673 313.422 278.906L312.924 279.308L312.511 279.615C312.215 279.838 311.929 280.028 311.654 280.209L341.245 278.938C342.039 278.355 342.855 277.878 343.692 277.338C340.896 278.789 339.063 279.88 339.953 277.72C339.99 277.627 340.037 277.539 340.091 277.455C341.595 274.553 348.564 270.041 348.564 270.041H348.701C350.205 269.469 357.365 265.805 361.718 253.339H361.855C363.613 247.283 363.997 240.911 362.978 234.688C362.247 233.629 360.754 232.707 357.682 233.089C351.9 233.82 332.147 237.802 327.625 238.713H327.519C326.41 238.931 325.358 239.378 324.43 240.024C323.502 240.67 322.718 241.502 322.128 242.466C321.537 243.431 321.154 244.507 321.001 245.628C320.848 246.748 320.929 247.888 321.238 248.975C321.652 250.405 322.065 251.771 322.446 253.032C322.446 253.032 322.626 253.614 322.891 254.419C323.872 257.539 323.872 260.885 322.891 264.004" stroke="#263238" stroke-miterlimit="10"/>
<path d="M322.435 265.212C322.573 264.83 322.721 264.439 322.859 264.047" stroke="#263238" stroke-miterlimit="10"/>
<path d="M418.571 253.381C409.43 261.272 394.338 260.604 389.011 260.085C388.609 259.045 387.935 258.131 387.06 257.44C386.184 256.749 385.139 256.305 384.033 256.156L361.792 253.36C363.548 247.304 363.928 240.931 362.904 234.709C363.377 235.427 363.614 236.275 363.582 237.135L416.707 247.186H416.918C417.167 247.334 417.408 247.497 417.639 247.673C419.683 249.24 420.35 251.846 418.571 253.381Z" fill="#263238" stroke="#263238" stroke-linecap="round" stroke-linejoin="round"/>
<path d="M177.983 261.017L151.866 275.315L152.925 287.781L224.499 283.354L261.568 269.31L194.643 257.798C188.892 257.147 183.078 258.271 177.983 261.017V261.017Z" fill="#263238" stroke="#263238" stroke-miterlimit="10"/>
<path d="M322.859 264.047L322.351 263.898C317.288 262.394 280.728 251.634 279.277 252.004C277.826 252.375 240.46 254.017 240.46 254.017L319.428 271.662C319.798 271.026 320.169 270.348 320.54 269.639L320.593 269.533L322.446 265.296V265.233" fill="#263238"/>
<path d="M322.859 264.047L322.351 263.898C317.288 262.394 280.728 251.634 279.277 252.004C277.826 252.375 240.46 254.017 240.46 254.017L319.428 271.662C319.798 271.026 320.169 270.348 320.54 269.639L320.593 269.533L322.446 265.296V265.233" stroke="#263238" stroke-miterlimit="10"/>
<path d="M341.203 278.959C319.29 294.39 312.236 331.988 312.077 332.973H311.812L310.552 333.047L281.956 334.88L281.808 334.562C268.558 304.907 244.909 305.087 244.909 305.087C222.466 302.969 214.798 315.096 213.273 329.447C212.914 333.253 212.89 337.084 213.199 340.895C203.285 341.796 195.522 342.516 193.076 342.791C193.359 342.51 193.604 342.193 193.806 341.849C200.034 330.728 201.866 321.387 206.103 313.348C207.387 312.59 208.621 311.752 209.799 310.838L209.916 310.753C210.919 310 211.854 309.16 212.712 308.243C213.334 307.624 213.924 306.974 214.48 306.294C214.48 306.294 218.515 299.4 228.694 293.161C235.482 288.999 245.025 285.133 257.946 283.788C267.859 282.729 278.302 281.924 288.47 281.246L341.203 278.959Z" fill="#FF772B" stroke="#263238" stroke-miterlimit="10"/>
<path d="M206.103 313.348C201.866 321.419 200.045 330.76 193.87 341.817C193.668 342.161 193.422 342.478 193.139 342.76V342.76C192.883 342.785 192.628 342.828 192.377 342.887C184.433 347.039 171.036 348.267 157.49 348.182H156.028H154.641C154.058 348.182 153.465 348.182 152.872 348.182C151.124 348.129 149.409 348.066 147.714 347.971C146.952 347.971 146.189 347.896 145.437 347.843H145.003L141.539 347.61L139.855 347.473L138.171 347.335C134.74 347.049 131.467 346.71 128.512 346.361L126.087 346.054L125.197 345.937C120.283 345.312 116.481 344.677 114.5 344.253C110.465 343.395 107.616 343.194 102.522 341.129C101.373 333.526 99.2882 326.095 96.3155 319.004C91.4859 307.851 84.0828 299.209 73.82 302.058C67.2323 303.869 64.0656 309.366 62.8053 315.985C62.7704 316.1 62.7456 316.217 62.7311 316.335C60.2316 330.188 65.8343 348.691 65.8343 348.691L57.3614 343.469L61.6826 342.262L55.7092 315.922L60.1787 311.897L63.7585 302.249C63.7585 302.249 79.804 291.901 81.1279 290.048L83.1613 289.963C89.2724 290.874 95.7965 295.163 97.9889 297.377C100.891 300.268 102.967 303.88 105.773 306.856C111.249 312.692 111.355 313.899 119.679 317.119C119.679 317.119 120.177 317.235 121.13 317.426C130.355 319.279 180.684 328.483 206.103 313.348Z" fill="#FF772B" stroke="#263238" stroke-miterlimit="10"/>
<path d="M212.701 308.211C211.844 309.128 210.908 309.968 209.905 310.722C210.886 309.941 211.82 309.103 212.701 308.211V308.211Z" fill="#FF772B" stroke="#263238" stroke-miterlimit="10"/>
<path d="M228.683 293.13C218.505 299.368 214.47 306.263 214.47 306.263C213.914 306.942 213.323 307.593 212.701 308.212C211.844 309.128 210.908 309.968 209.905 310.722L209.788 310.806C207.766 312.257 206.516 312.49 206.092 313.316C201.856 321.387 200.034 330.728 193.859 341.785C193.657 342.13 193.412 342.447 193.129 342.728V342.728C192.872 342.754 192.617 342.796 192.366 342.855C184.423 347.007 171.025 348.235 157.479 348.151H156.017H154.63C154.047 348.151 153.454 348.151 152.861 348.151C151.114 348.098 149.398 348.034 147.703 347.939C146.941 347.939 146.178 347.865 145.426 347.812H144.992L141.529 347.579L139.845 347.441L138.161 347.303C134.729 347.017 131.457 346.678 128.502 346.329L126.076 346.022L125.187 345.905C124.371 344.634 125.187 334.975 125.187 334.975C125.187 334.975 122.846 326.439 121.194 317.595C120.135 311.897 119.34 306.051 119.626 302.281C120.4 292.632 129.783 286.468 129.783 286.468C140.067 281.639 151.855 275.485 151.855 275.485L152.914 287.94L224.489 283.524L228.683 293.13Z" fill="#FF772B" stroke="#263238" stroke-miterlimit="10"/>
<path d="M146.697 274.383C146.697 274.383 140.883 272.265 136.255 275.993L131.531 284.837C136.774 286.904 142.47 287.551 148.043 286.711C148.043 286.711 147.545 284.032 146.697 274.383Z" fill="#FF772B" stroke="#263238" stroke-miterlimit="10"/>
<path d="M138.436 277.021C137.959 277.381 137.564 277.841 137.281 278.369C136.997 278.896 136.831 279.479 136.794 280.076C136.757 280.674 136.849 281.272 137.065 281.831C137.281 282.389 137.615 282.895 138.045 283.312C140.841 286.129 146.729 284.371 147.164 284.371L146.274 276.322C146.274 276.322 143.668 274.066 138.436 277.021Z" fill="white"/>
<path d="M141.709 335.589C156.261 335.102 185.217 333.958 191.487 332.412" stroke="#263238" stroke-miterlimit="10"/>
<path d="M133.321 335.886L138.405 335.727" stroke="#263238" stroke-miterlimit="10"/>
<path d="M60.4331 311.76C60.4928 312.48 60.6993 313.18 61.0399 313.818C61.3805 314.455 61.848 315.016 62.4136 315.466" fill="white"/>
<path d="M60.4331 311.76C60.4928 312.48 60.6993 313.18 61.0399 313.818C61.3805 314.455 61.848 315.016 62.4136 315.466" stroke="#263238" stroke-miterlimit="10"/>
<path d="M311.813 332.942V332.952L310.552 333.016L311.813 332.942Z" fill="white" stroke="#263238" stroke-miterlimit="10"/>
<path d="M407.185 312.66C407.314 313.816 407.367 314.98 407.344 316.144C407.298 318.511 407.111 320.874 406.783 323.219C406.783 323.335 406.783 323.452 406.719 323.568C405.787 320.603 397.738 313.56 357.005 332.518L355.003 333.461C353.107 334.361 348.871 338.703 343.628 342.59C336.215 348.108 326.683 352.705 318.993 345.312C318.803 345.121 318.612 344.931 318.422 344.719C318.22 344.507 318.03 344.295 317.828 344.052C317.627 343.808 317.362 343.501 317.129 343.194C316.896 342.887 316.663 342.59 316.452 342.272L316.25 341.944C314.694 339.132 313.28 336.245 312.014 333.291C311.996 333.237 311.975 333.184 311.95 333.132C311.931 333.063 311.906 332.996 311.876 332.931H312.152H312.342C322.479 331.732 332.289 328.589 341.235 323.674C358.763 313.941 400.524 293.384 407.185 312.66Z" fill="#FF772B"/>
<path opacity="0.3" d="M407.185 312.66C407.314 313.816 407.367 314.98 407.344 316.144C407.298 318.511 407.111 320.874 406.783 323.219C406.783 323.335 406.783 323.452 406.719 323.568C405.787 320.603 397.738 313.56 357.005 332.518L355.003 333.461C353.107 334.361 348.871 338.703 343.628 342.59C336.215 348.108 326.683 352.705 318.993 345.312C318.803 345.121 318.612 344.931 318.422 344.719C318.22 344.507 318.03 344.295 317.828 344.052C317.627 343.808 317.362 343.501 317.129 343.194C316.896 342.887 316.663 342.59 316.452 342.272L316.25 341.944C314.694 339.132 313.28 336.245 312.014 333.291C311.996 333.237 311.975 333.184 311.95 333.132C311.931 333.063 311.906 332.996 311.876 332.931H312.152H312.342C322.479 331.732 332.289 328.589 341.235 323.674C358.763 313.941 400.524 293.384 407.185 312.66Z" fill="black"/>
<path d="M407.185 312.66C407.314 313.816 407.367 314.98 407.344 316.144C407.298 318.511 407.111 320.874 406.783 323.219C406.783 323.335 406.783 323.452 406.719 323.568C405.787 320.603 397.738 313.56 357.005 332.518L355.003 333.461C353.107 334.361 348.871 338.703 343.628 342.59C336.215 348.108 326.683 352.705 318.993 345.312C318.803 345.121 318.612 344.931 318.422 344.719C318.22 344.507 318.03 344.295 317.828 344.052C317.627 343.808 317.362 343.501 317.129 343.194C316.896 342.887 316.663 342.59 316.452 342.272L316.25 341.944C314.694 339.132 313.28 336.245 312.014 333.291C311.996 333.237 311.975 333.184 311.95 333.132C311.931 333.063 311.906 332.996 311.876 332.931H312.152H312.342C322.479 331.732 332.289 328.589 341.235 323.674C358.763 313.941 400.524 293.384 407.185 312.66Z" stroke="#263238" stroke-miterlimit="10"/>
<path d="M311.95 333.312C313.216 336.266 314.63 339.154 316.187 341.965L315.879 341.521C315.657 341.182 315.435 340.822 315.223 340.461C315.011 340.101 314.852 339.837 314.683 339.508C314.513 339.18 314.439 339.074 314.312 338.841C314.185 338.608 314.09 338.396 313.973 338.174L313.518 337.221C313.369 336.892 313.211 336.564 313.073 336.225C312.713 335.304 312.321 334.34 311.95 333.312Z" fill="#FF772B" stroke="#263238" stroke-miterlimit="10"/>
<path d="M406.433 309.207C406.835 310.32 407.088 311.481 407.185 312.66C400.524 293.384 358.763 313.941 341.171 323.632C332.225 328.547 322.415 331.69 312.279 332.889H312.088C312.141 332.624 312.48 330.771 313.147 327.975C313.549 326.386 314.047 324.458 314.683 322.308C315.032 321.122 315.435 319.862 315.858 318.538C316.727 315.89 317.765 313.009 318.983 310.065C320.201 307.121 321.599 304.007 323.219 300.957L324.204 299.124C324.532 298.521 324.882 297.906 325.263 297.313C325.644 296.72 325.782 296.402 326.058 295.968C326.234 295.665 326.425 295.357 326.629 295.047C326.894 294.623 327.17 294.189 327.456 293.765C327.742 293.342 328.218 292.611 328.61 292.039C329.012 291.478 329.415 290.906 329.828 290.355C330.241 289.804 330.686 289.232 331.12 288.682C331.554 288.131 331.936 287.686 332.349 287.199C332.762 286.712 333.185 286.235 333.609 285.769C334.361 284.943 335.134 284.149 335.939 283.375C336.204 283.121 336.469 282.867 336.744 282.623C337.019 282.38 337.295 282.126 337.57 281.893C337.845 281.66 338.216 281.321 338.544 281.056L339.254 280.473L340.133 279.806L340.631 279.425L341.139 279.065C341.244 278.985 341.354 278.91 341.468 278.842C342.177 278.345 342.876 277.9 343.586 277.455C345.695 276.19 347.932 275.15 350.258 274.352C350.258 274.352 361.411 270.836 377.795 271.344C384.652 271.532 391.472 272.416 398.151 273.981C400.455 274.524 402.663 275.417 404.696 276.629C401.286 281.37 399.682 287.173 400.174 292.992C400.788 299.961 404.209 305.564 405.861 308.392C405.959 308.541 406.041 308.701 406.105 308.868C406.221 308.975 406.33 309.088 406.433 309.207V309.207Z" fill="#FF772B"/>
<path opacity="0.2" d="M320.487 307.565C323.844 300.067 332.635 293.236 332.635 293.236C359.886 289.211 400.418 288.004 400.036 291.763H400.248C400.056 286.318 401.672 280.963 404.845 276.533C402.811 275.322 400.604 274.429 398.299 273.886C391.621 272.32 384.8 271.437 377.943 271.248C361.527 270.74 350.407 274.256 350.407 274.256C348.08 275.054 345.844 276.094 343.734 277.36C343.003 277.804 342.304 278.249 341.616 278.747C341.502 278.815 341.393 278.889 341.288 278.969L340.779 279.33L340.281 279.711L339.402 280.378L338.693 280.961C338.364 281.225 338.036 281.511 337.718 281.797C337.401 282.083 337.157 282.274 336.892 282.528C336.628 282.782 336.352 283.026 336.087 283.28C335.282 284.053 334.509 284.847 333.757 285.674C333.334 286.14 332.899 286.616 332.497 287.103C332.095 287.591 331.681 288.088 331.268 288.586C330.855 289.084 330.4 289.698 329.976 290.26C329.553 290.821 329.161 291.382 328.758 291.944C328.366 292.515 327.975 293.098 327.604 293.67C327.233 294.242 327.043 294.528 326.778 294.951C326.513 295.375 326.386 295.566 326.206 295.873C325.931 296.307 325.666 296.762 325.412 297.218C325.157 297.673 324.702 298.425 324.352 299.029L323.367 300.861C321.938 303.583 320.677 306.326 319.555 309.006H319.777L320.487 307.565Z" fill="black"/>
<path opacity="0.1" d="M406.275 308.762C406.211 308.595 406.129 308.435 406.031 308.286C404.379 305.458 400.958 299.813 400.344 292.886C400.344 292.515 400.291 292.134 400.27 291.753H400.058C400.397 287.993 359.907 289.2 332.656 293.225C332.656 293.225 323.865 300.056 320.508 307.555L319.693 309.038H319.47C319.343 309.355 319.195 309.684 319.068 310.001C317.85 312.977 316.812 315.858 315.943 318.474C315.52 319.798 315.117 321.058 314.768 322.245C314.132 324.363 313.634 326.322 313.232 327.911C312.533 330.76 312.173 332.56 312.173 332.825H312.363C322.5 331.626 332.31 328.483 341.256 323.569C358.848 313.878 400.566 293.32 407.27 312.596C407.173 311.417 406.92 310.256 406.518 309.143C406.444 309.012 406.363 308.885 406.275 308.762V308.762Z" fill="black"/>
<path d="M406.433 309.207C406.835 310.32 407.088 311.481 407.185 312.66C400.524 293.384 358.763 313.941 341.171 323.632C332.225 328.547 322.415 331.69 312.279 332.889H312.088C312.141 332.624 312.48 330.771 313.147 327.975C313.549 326.386 314.047 324.458 314.683 322.308C315.032 321.122 315.435 319.862 315.858 318.538C316.727 315.89 317.765 313.009 318.983 310.065C320.201 307.121 321.599 304.007 323.219 300.957L324.204 299.124C324.532 298.521 324.882 297.906 325.263 297.313C325.644 296.72 325.782 296.402 326.058 295.968C326.234 295.665 326.425 295.357 326.629 295.047C326.894 294.623 327.17 294.189 327.456 293.765C327.742 293.342 328.218 292.611 328.61 292.039C329.012 291.478 329.415 290.906 329.828 290.355C330.241 289.804 330.686 289.232 331.12 288.682C331.554 288.131 331.936 287.686 332.349 287.199C332.762 286.712 333.185 286.235 333.609 285.769C334.361 284.943 335.134 284.149 335.939 283.375C336.204 283.121 336.469 282.867 336.744 282.623C337.019 282.38 337.295 282.126 337.57 281.893C337.845 281.66 338.216 281.321 338.544 281.056L339.254 280.473L340.133 279.806L340.631 279.425L341.139 279.065C341.244 278.985 341.354 278.91 341.468 278.842C342.177 278.345 342.876 277.9 343.586 277.455C345.695 276.19 347.932 275.15 350.258 274.352C350.258 274.352 361.411 270.836 377.795 271.344C384.652 271.532 391.472 272.416 398.151 273.981C400.455 274.524 402.663 275.417 404.696 276.629C401.286 281.37 399.682 287.173 400.174 292.992C400.788 299.961 404.209 305.564 405.861 308.392C405.959 308.541 406.041 308.701 406.105 308.868C406.221 308.975 406.33 309.088 406.433 309.207V309.207Z" stroke="#263238" stroke-miterlimit="10"/>
<path d="M117.996 319.131C117.996 319.131 109.523 318.728 109.438 322.308C109.353 325.888 119.701 343.215 120.876 342.812C122.052 342.41 122.041 333.164 122.041 333.164L117.996 319.131Z" fill="#263238" stroke="#263238" stroke-miterlimit="10"/>
<path d="M272.223 304.663L288.258 327.18L292.611 326.375L284.276 306.136L272.223 304.663Z" fill="#263238" stroke="#263238" stroke-miterlimit="10"/>
<path d="M379.151 271.164C378.738 271.164 378.335 271.164 377.922 271.238C361.506 270.73 350.385 274.246 350.385 274.246C348.059 275.044 345.822 276.084 343.713 277.349C340.917 278.8 339.085 279.891 339.974 277.73C340.012 277.638 340.058 277.549 340.112 277.466C341.616 274.564 348.585 270.052 348.585 270.052H348.712L379.151 271.164Z" fill="#FF772B" stroke="#263238" stroke-miterlimit="10"/>
<path d="M248.245 249.982C257.491 251.761 264.746 252.873 273.928 252.269C273.928 252.269 279.139 247.45 281.596 247.98" stroke="#263238" stroke-miterlimit="10"/>
<path d="M311.95 332.942H312.077" stroke="#263238" stroke-miterlimit="10"/>
<path d="M350.978 366.484H349.294" stroke="#263238" stroke-miterlimit="10"/>
<path d="M332.613 293.225C332.613 293.225 323.823 300.056 320.465 307.555L319.65 309.038L369.481 298.044L378.727 295.629C384.886 294.077 391.381 294.548 397.251 296.974L401.106 298.182C400.181 296.173 399.815 293.952 400.047 291.753C400.354 288.004 359.864 289.211 332.613 293.225Z" fill="white"/>
<path d="M341.203 278.959L343.744 291.89" stroke="#263238" stroke-miterlimit="10"/>
<path d="M349.284 366.505C349.083 366.643 348.881 366.78 348.669 366.907" stroke="#263238" stroke-miterlimit="10"/>
<path d="M410.606 326.831H410.596" stroke="#263238" stroke-miterlimit="10"/>
<path d="M367.829 362.639C367.268 362.959 366.675 363.218 366.06 363.412H366.028C363.693 364.102 361.306 364.605 358.89 364.916H358.816C354.579 365.541 350.661 365.838 350.661 365.838L351.042 365.192C351.988 364.426 352.775 363.483 353.361 362.417C353.817 361.548 354.272 360.553 354.717 359.451C356.915 357.472 359.008 355.379 360.987 353.181C360.987 353.181 365.382 350.576 367.85 351.37C370.318 352.164 371.451 360.426 367.829 362.639Z" fill="white" stroke="#263238" stroke-miterlimit="10"/>
<path d="M365.901 354.399C365.901 354.399 363.073 356.613 364.323 361.633C364.323 361.633 366.939 359.419 365.901 354.399Z" fill="#263238" stroke="#263238" stroke-miterlimit="10"/>
<path d="M402.451 348.659C402.451 348.659 406.232 342.135 409.028 343.152C410.289 343.607 410.935 349.051 409.176 350.491C407.418 351.932 400.704 352.609 400.704 352.609C400.704 352.609 401.625 350.491 402.451 348.659Z" fill="white" stroke="#263238" stroke-miterlimit="10"/>
<path d="M409.049 344.613C409.049 344.613 407.683 346.053 408.372 349.337C408.393 349.358 409.632 347.896 409.049 344.613Z" fill="#263238"/>
<path d="M97.0145 326.756C98.2219 340.525 91.3483 351.783 81.6786 351.783C72.0089 351.783 63.123 340.567 61.9262 326.756C60.7294 312.946 67.5819 301.698 77.2515 301.698C78.5479 301.7 79.8367 301.896 81.0749 302.28C89.1559 304.769 95.9554 314.778 97.0145 326.756Z" fill="#5C5C5C" stroke="#263238" stroke-linecap="round" stroke-linejoin="round"/>
<path d="M89.2303 324.787C90.2894 336.659 85.6611 346.276 78.9463 346.276C72.2316 346.276 65.9405 336.649 64.9025 324.787C63.8646 312.925 69.139 303.912 75.9067 303.912C82.6744 303.912 88.1818 312.903 89.2303 324.787Z" fill="#263238" stroke="#263238" stroke-miterlimit="10"/>
<path d="M80.3925 344.977C85.8085 344.356 89.1621 334.821 87.883 323.681C86.6039 312.541 81.1765 304.014 75.7606 304.636C70.3446 305.258 66.991 314.793 68.2701 325.933C69.5492 337.073 74.9766 345.599 80.3925 344.977Z" fill="#BFBFBF"/>
<path d="M140.682 318.209C152.815 318.595 164.961 318.085 177.02 316.684L199.144 314.121" stroke="#263238" stroke-miterlimit="10"/>
<path d="M132.251 317.86L136.265 318.03" stroke="#263238" stroke-miterlimit="10"/>
<path d="M125.219 317.542L129.603 317.743" stroke="#263238" stroke-miterlimit="10"/>
<path d="M282.645 247.684C282.645 247.684 278.408 247.196 273.928 252.238L279.224 251.973L282.645 247.684Z" fill="#263238" stroke="#263238" stroke-miterlimit="10"/>
<path d="M168.303 285.144L191.328 259.09L207.808 261.484L189.443 283.63L168.303 285.144Z" fill="white"/>
<path d="M194.664 283.503L211.716 262.109L216.238 262.871L200.384 283.248L194.664 283.503Z" fill="white"/>
<path d="M162.076 270.476L152.755 275.644L153.01 279.669L162.076 270.476Z" fill="white"/>
<path d="M245.29 268.029C245.439 268.928 245.325 269.851 244.963 270.687C244.6 271.523 244.004 272.237 243.246 272.742L236.732 277.084L257.65 269.618L245.29 268.029Z" fill="white"/>
<path d="M249.59 254.568L275.262 260.096C275.262 260.096 277.772 254.938 290.355 255.944L295.396 256.696L281.299 253.434V254.44L272.996 255.447L265.19 253.932" fill="white"/>
<path d="M212.458 311.601C212.638 311.76 236.605 309.482 236.51 309.482" stroke="#FF772B" stroke-miterlimit="10"/>
<path d="M208.327 318.082C214.364 317.574 225.209 317.224 225.495 317.224" stroke="#FF772B" stroke-miterlimit="10"/>
<path d="M211.324 323.198C211.525 323.272 221.343 322.986 223.98 322.795" stroke="#FF772B" stroke-miterlimit="10"/>
<path d="M203.794 331.639C203.794 331.194 214.639 330.728 218.791 330.442" stroke="#FF772B" stroke-miterlimit="10"/>
<path d="M210.583 339.921L218.134 339.402" stroke="#FF772B" stroke-miterlimit="10"/>
<path d="M62.5933 309.376C65.8659 309.578 65.7706 309.472 69.0115 309.673" stroke="#FF772B" stroke-miterlimit="10"/>
<path d="M60.4858 318.093L68.0161 318.739" stroke="#FF772B" stroke-miterlimit="10"/>
<path d="M59.0774 321.387L62.456 321.673" stroke="#FF772B" stroke-miterlimit="10"/>
<path d="M319.671 287.337C335.36 284.397 351.284 282.894 367.246 282.846" stroke="#FF772B" stroke-miterlimit="10"/>
<path d="M324.914 289.74C330.412 288.746 335.986 288.225 341.573 288.184" stroke="#FF772B" stroke-miterlimit="10"/>
<path d="M310.626 312.808L337.422 309.684" stroke="#FF772B" stroke-miterlimit="10"/>
<path d="M306.856 316.981L324.966 314.619" stroke="#FF772B" stroke-miterlimit="10"/>
<path d="M62.4133 342.897C62.784 343.416 64.1079 344.031 67.5076 345.164" stroke="#FF772B" stroke-miterlimit="10"/>
<path d="M102.172 323.939C107.762 324.717 113.392 325.18 119.033 325.327" stroke="#FF772B" stroke-miterlimit="10"/>
<path d="M107.521 328.97C110.775 329.423 114.054 329.663 117.339 329.69" stroke="#FF772B" stroke-miterlimit="10"/>
<path d="M109.406 333.842C112.531 334.334 115.682 334.649 118.843 334.784" stroke="#FF772B" stroke-miterlimit="10"/>
<path d="M273.24 338.142L299.294 337.157" stroke="#5C5C5C" stroke-miterlimit="10"/>
<path d="M274.754 341.764L284.191 341.393" stroke="#5C5C5C" stroke-miterlimit="10"/>
<path d="M273.25 346.308L296.657 345.926" stroke="#5C5C5C" stroke-miterlimit="10"/>
<path d="M272.488 355.003L299.675 353.457" stroke="#5C5C5C" stroke-miterlimit="10"/>
<path d="M272.488 362.215L288.713 361.855" stroke="#5C5C5C" stroke-miterlimit="10"/>
<path d="M268.717 369.28L280.791 368.539" stroke="#5C5C5C" stroke-miterlimit="10"/>
<path d="M258.899 376.492C261.804 375.441 264.877 374.931 267.965 374.988" stroke="#5C5C5C" stroke-miterlimit="10"/>
<path d="M85.5337 348.723C90.6827 347.947 95.9064 347.794 101.092 348.267" stroke="#5C5C5C" stroke-miterlimit="10"/>
<path d="M89.7808 343.649H95.8177" stroke="#5C5C5C" stroke-miterlimit="10"/>
<path d="M91.2849 339.413L99.2176 339.063" stroke="#5C5C5C" stroke-miterlimit="10"/>
<path d="M93.9219 335.261L99.9694 334.901" stroke="#5C5C5C" stroke-miterlimit="10"/>
<path d="M94.314 330.379L98.847 330.718" stroke="#5C5C5C" stroke-miterlimit="10"/>
<path d="M358.964 340.112L399.348 335.875" stroke="#5C5C5C" stroke-miterlimit="10"/>
<path d="M352.895 345.513L384.976 342.442" stroke="#5C5C5C" stroke-miterlimit="10"/>
<path d="M347.61 350.417C359.695 349.665 363.095 348.902 375.55 347.769" stroke="#5C5C5C" stroke-miterlimit="10"/>
<path d="M315.53 355.172C316.282 355.924 346.858 354.41 346.477 354.41" stroke="#263238" stroke-miterlimit="10"/>
<path d="M319.682 359.695H318.453C327.17 359.303 328.705 358.922 337.422 358.519" stroke="#263238" stroke-miterlimit="10"/>
<path d="M317.415 351.963H328.006" stroke="#263238" stroke-miterlimit="10"/>
<path d="M321.948 363.656L346.107 362.925" stroke="#263238" stroke-miterlimit="10"/>
<path d="M237.515 128.068C270.716 128.068 297.631 101.153 297.631 67.9526C297.631 34.752 270.716 7.83752 237.515 7.83752C204.315 7.83752 177.4 34.752 177.4 67.9526C177.4 101.153 204.315 128.068 237.515 128.068Z" fill="white" stroke="#263238" stroke-miterlimit="10"/>
<path d="M288.872 99.2067C283.478 108.07 275.882 115.386 266.822 120.444C257.763 125.501 247.548 128.128 237.173 128.068C226.798 128.009 216.614 125.265 207.614 120.103C198.613 114.942 191.101 107.538 185.81 98.6136L224.933 76.0334L236.817 69.1598L238.034 69.88L248.276 75.7792L251.199 77.4632L288.872 99.2067Z" fill="#263238" stroke="#263238" stroke-miterlimit="10"/>
<path d="M291.636 69.0645V68.8633C291.642 68.9302 291.642 68.9975 291.636 69.0645V69.0645Z" fill="#FF772B"/>
<path d="M198.943 44.7156C192.85 50.8507 188.682 58.6329 186.954 67.1052H183.427C183.766 57.6394 186.593 48.4302 191.625 40.405L198.943 44.7156Z" fill="#FF772B"/>
<path opacity="0.6" d="M198.943 44.7156C192.85 50.8507 188.682 58.6329 186.954 67.1052H183.427C183.766 57.6394 186.593 48.4302 191.625 40.405L198.943 44.7156Z" fill="white"/>
<path d="M218.314 33.203C210.976 35.3142 204.305 39.279 198.943 44.7155L191.625 40.3625C196.593 32.4364 203.525 25.9281 211.748 21.468L218.314 33.203Z" fill="#FF772B"/>
<path opacity="0.5" d="M218.314 33.203C210.976 35.3142 204.305 39.279 198.943 44.7155L191.625 40.3625C196.593 32.4364 203.525 25.9281 211.748 21.468L218.314 33.203Z" fill="white"/>
<path d="M238.321 14.944L238.119 32.1228C235.643 31.6962 233.134 31.4836 230.621 31.4873C226.459 31.4863 222.317 32.0638 218.314 33.2031L211.726 21.4681C219.643 17.1733 228.509 14.9303 237.516 14.944H238.321Z" fill="#FF772B"/>
<path opacity="0.4" d="M238.321 14.944L238.119 32.1228C235.643 31.6962 233.134 31.4836 230.621 31.4873C226.459 31.4863 222.317 32.0638 218.314 33.2031L211.726 21.4681C219.643 17.1733 228.509 14.9303 237.516 14.944H238.321Z" fill="white"/>
<path d="M264.682 22.2412L254.917 38.6892C249.831 35.3642 244.112 33.1284 238.119 32.1227L238.32 14.944C247.588 15.0744 256.666 17.5874 264.682 22.2412V22.2412Z" fill="#FF772B"/>
<path opacity="0.3" d="M264.682 22.2412L254.917 38.6892C249.831 35.3642 244.112 33.1284 238.119 32.1227L238.32 14.944C247.588 15.0744 256.666 17.5874 264.682 22.2412V22.2412Z" fill="white"/>
<path d="M284.18 41.6228L267.531 50.9853C264.193 46.097 259.92 41.9179 254.959 38.6891L264.724 22.2411C272.759 26.9332 279.457 33.606 284.18 41.6228V41.6228Z" fill="#FF772B"/>
<path opacity="0.2" d="M284.18 41.6228L267.531 50.9853C264.193 46.097 259.92 41.9179 254.959 38.6891L264.724 22.2411C272.759 26.9332 279.457 33.606 284.18 41.6228V41.6228Z" fill="white"/>
<path d="M291.625 68.3654L274.489 68.1536C273.407 62.0039 271.036 56.153 267.531 50.9854L284.222 41.6229C288.986 49.7365 291.538 58.9573 291.625 68.3654V68.3654Z" fill="#FF772B"/>
<path opacity="0.1" d="M291.625 68.3654L274.489 68.1536C273.407 62.0039 271.036 56.153 267.531 50.9854L284.222 41.6229C288.986 49.7365 291.538 58.9573 291.625 68.3654V68.3654Z" fill="white"/>
<path d="M291.647 68.8632C291.652 68.9301 291.652 68.9974 291.647 69.0644C291.501 75.0179 290.476 80.9172 288.607 86.5715L274.479 83.3942L275.135 78.0986C275.135 77.4102 275.199 76.7218 275.199 75.9804V75.5568C275.182 73.0453 274.948 70.5401 274.5 68.0688L291.636 68.2807C291.641 68.3759 291.641 68.4714 291.636 68.5666C291.65 68.6648 291.654 68.7642 291.647 68.8632V68.8632Z" fill="#FF772B"/>
<path d="M187.144 85.4701L186.138 85.6925C185.693 84.3792 185.312 83.0341 184.973 81.6785C183.955 77.55 183.426 73.3164 183.395 69.0645V69.0645V68.8632C183.39 68.7927 183.39 68.7219 183.395 68.6514C183.395 68.1113 183.395 67.5923 183.395 67.0627H186.922C186.352 69.8732 186.05 72.7316 186.022 75.5992C186.008 75.74 186.008 75.8819 186.022 76.0228C186.041 77.7367 186.158 79.4482 186.371 81.1489C186.552 82.6021 186.81 84.0445 187.144 85.4701Z" fill="#FF772B"/>
<path opacity="0.7" d="M187.144 85.4701L186.138 85.6925C185.693 84.3792 185.312 83.0341 184.973 81.6785C183.955 77.55 183.426 73.3164 183.395 69.0645V69.0645V68.8632C183.39 68.7927 183.39 68.7219 183.395 68.6514C183.395 68.1113 183.395 67.5923 183.395 67.0627H186.922C186.352 69.8732 186.05 72.7316 186.022 75.5992C186.008 75.74 186.008 75.8819 186.022 76.0228C186.041 77.7367 186.158 79.4482 186.371 81.1489C186.552 82.6021 186.81 84.0445 187.144 85.4701Z" fill="white"/>
<path d="M236.817 7.40318V0" stroke="#263238" stroke-miterlimit="10"/>
<path d="M206.272 16.3315L202.205 9.28845" stroke="#263238" stroke-miterlimit="10"/>
<path d="M296.762 103.846L288.851 99.281" stroke="#263238" stroke-miterlimit="10"/>
<path d="M184.783 39.1974L176.861 34.6221" stroke="#263238" stroke-miterlimit="10"/>
<path d="M306.04 69.2341H297.896" stroke="#263238" stroke-miterlimit="10"/>
<path d="M177.718 69.2341H167.593" stroke="#263238" stroke-miterlimit="10"/>
<path d="M296.762 34.6221L290.365 38.3184" stroke="#263238" stroke-miterlimit="10"/>
<path d="M186.244 98.4231L176.861 103.846" stroke="#263238" stroke-miterlimit="10"/>
<path d="M271.428 9.28845L267.87 15.4419" stroke="#263238" stroke-miterlimit="10"/>
<path d="M292.738 82.6104L291.605 86.2326L288.586 85.5654L260.435 79.2848L248.308 76.5947C249.056 75.5289 249.641 74.3582 250.045 73.1208C250.53 71.6528 250.759 70.1123 250.723 68.5667L277.868 77.6114L292.738 82.6104Z" fill="#BFBFBF" stroke="#263238" stroke-miterlimit="10"/>
<path d="M250.723 68.5985C250.785 71.4622 249.94 74.2722 248.308 76.6265L237.42 74.2117L239.994 65.0187L250.723 68.5985Z" fill="#263238"/>
<path d="M250.934 67.6346C250.996 70.4983 250.151 73.3084 248.52 75.6627C247.348 77.3615 245.8 78.7676 243.997 79.772C241.652 81.0914 238.968 81.6853 236.285 81.4785C233.602 81.2718 231.04 80.2737 228.925 78.6105C226.809 76.9474 225.235 74.694 224.401 72.1356C223.566 69.5772 223.51 66.8288 224.238 64.2384C224.967 61.6479 226.448 59.3317 228.493 57.5831C230.539 55.8345 233.057 54.7321 235.729 54.4153C238.401 54.0986 241.107 54.5818 243.505 55.8038C245.902 57.0257 247.884 58.9315 249.197 61.28C250.296 63.2206 250.893 65.4048 250.934 67.6346Z" fill="#BFBFBF" stroke="#263238" stroke-miterlimit="10"/>
<path d="M155.064 171.163C174.393 162.361 193.68 155.202 213.104 150.499C244.136 142.969 305.744 142.238 305.744 142.238" stroke="#263238" stroke-miterlimit="10"/>
<path d="M131.351 182.728C136.053 180.306 140.749 177.959 145.437 175.685" stroke="#263238" stroke-miterlimit="10"/>
<path d="M394.847 182.082L396.541 182.315" stroke="#263238" stroke-miterlimit="10"/>
<path d="M384.955 180.748L388.958 181.277" stroke="#263238" stroke-miterlimit="10"/>
<path d="M371.673 179.053C374.003 179.339 376.344 179.625 378.674 179.932" stroke="#263238" stroke-miterlimit="10"/>
<path d="M249.219 178.545C268.058 175.362 287.148 173.908 306.252 174.203C326.238 174.523 346.192 175.916 366.028 178.375" stroke="#263238" stroke-miterlimit="10"/>
<path d="M213.347 187.738C220.54 185.242 227.858 183.121 235.271 181.383" stroke="#263238" stroke-miterlimit="10"/>
<path d="M298.679 127.548L305.098 126.256C391.553 115.136 441.511 143.414 441.511 143.414C442.623 133.458 437.995 114.595 428.039 113.483C423.729 112.996 419.387 114.075 415.806 116.523C414.331 110.018 410.404 104.333 404.843 100.65C399.282 96.9673 392.515 95.5702 385.95 96.7495C380.471 97.7282 375.461 100.464 371.675 104.544C367.89 108.624 365.536 113.825 364.969 119.361V119.531C364.25 118.359 363.272 117.368 362.109 116.634C360.947 115.899 359.632 115.441 358.265 115.294C355.9 115.035 353.528 115.711 351.656 117.18C351.673 111.991 349.703 106.993 346.152 103.21C342.601 99.4277 337.736 97.1474 332.557 96.8372C327.378 96.5269 322.276 98.2103 318.299 101.542C314.321 104.874 311.769 109.601 311.166 114.754C310.739 114.285 310.22 113.909 309.64 113.65C309.06 113.391 308.433 113.255 307.798 113.25C300.226 113.875 298.245 124.71 298.679 127.548Z" fill="#FF772B"/>
<path opacity="0.3" d="M298.679 127.548L305.098 126.256C391.553 115.136 441.511 143.414 441.511 143.414C442.623 133.458 437.995 114.595 428.039 113.483C423.729 112.996 419.387 114.075 415.806 116.523C414.331 110.018 410.404 104.333 404.843 100.65C399.282 96.9673 392.515 95.5702 385.95 96.7495C380.471 97.7282 375.461 100.464 371.675 104.544C367.89 108.624 365.536 113.825 364.969 119.361V119.531C364.25 118.359 363.272 117.368 362.109 116.634C360.947 115.899 359.632 115.441 358.265 115.294C355.9 115.035 353.528 115.711 351.656 117.18C351.673 111.991 349.703 106.993 346.152 103.21C342.601 99.4277 337.736 97.1474 332.557 96.8372C327.378 96.5269 322.276 98.2103 318.299 101.542C314.321 104.874 311.769 109.601 311.166 114.754C310.739 114.285 310.22 113.909 309.64 113.65C309.06 113.391 308.433 113.255 307.798 113.25C300.226 113.875 298.245 124.71 298.679 127.548Z" fill="white"/>
<path d="M108.22 164.49L111.641 162.16C159.205 134.337 195.31 138.457 195.31 138.457C193.489 132.388 186.138 122.57 180.07 124.371C177.447 125.15 175.192 126.845 173.715 129.148C171.251 125.73 167.565 123.393 163.422 122.624C159.28 121.855 155 122.712 151.474 125.017C148.526 126.937 146.285 129.765 145.088 133.073C143.892 136.381 143.806 139.989 144.844 143.35V143.446C144.186 142.979 143.436 142.657 142.645 142.5C141.853 142.343 141.038 142.356 140.252 142.537C139.465 142.718 138.726 143.063 138.083 143.55C137.44 144.037 136.907 144.655 136.519 145.363C135.229 142.366 132.847 139.972 129.856 138.667C126.865 137.363 123.49 137.245 120.416 138.338C117.341 139.431 114.798 141.653 113.302 144.553C111.806 147.453 111.47 150.813 112.361 153.952C111.994 153.79 111.597 153.706 111.196 153.706C110.795 153.706 110.398 153.79 110.031 153.952C105.741 156.155 107.256 162.954 108.22 164.49Z" fill="#FF772B"/>
<path opacity="0.3" d="M108.22 164.49L111.641 162.16C159.205 134.337 195.31 138.457 195.31 138.457C193.489 132.388 186.138 122.57 180.07 124.371C177.447 125.15 175.192 126.845 173.715 129.148C171.251 125.73 167.565 123.393 163.422 122.624C159.28 121.855 155 122.712 151.474 125.017C148.526 126.937 146.285 129.765 145.088 133.073C143.892 136.381 143.806 139.989 144.844 143.35V143.446C144.186 142.979 143.436 142.657 142.645 142.5C141.853 142.343 141.038 142.356 140.252 142.537C139.465 142.718 138.726 143.063 138.083 143.55C137.44 144.037 136.907 144.655 136.519 145.363C135.229 142.366 132.847 139.972 129.856 138.667C126.865 137.363 123.49 137.245 120.416 138.338C117.341 139.431 114.798 141.653 113.302 144.553C111.806 147.453 111.47 150.813 112.361 153.952C111.994 153.79 111.597 153.706 111.196 153.706C110.795 153.706 110.398 153.79 110.031 153.952C105.741 156.155 107.256 162.954 108.22 164.49Z" fill="white"/>
<path d="M472.755 203.349C452.528 198.949 431.898 196.666 411.199 196.539L404.664 196.941C404.59 194.071 408.075 183.607 415.679 184.009C416.314 184.1 416.923 184.319 417.47 184.655C418.016 184.99 418.488 185.433 418.857 185.958C420.185 180.963 423.368 176.662 427.756 173.931C432.145 171.2 437.41 170.245 442.478 171.261C447.546 172.276 452.037 175.185 455.035 179.396C458.033 183.606 459.314 188.801 458.616 193.923C459.718 193.28 460.944 192.877 462.213 192.74C463.482 192.603 464.765 192.735 465.98 193.128C467.194 193.521 468.312 194.165 469.26 195.02C470.209 195.874 470.966 196.918 471.484 198.085C471.484 198.085 472.373 201.548 472.755 203.349Z" fill="#FF772B"/>
<path opacity="0.3" d="M472.755 203.349C452.528 198.949 431.898 196.666 411.199 196.539L404.664 196.941C404.59 194.071 408.075 183.607 415.679 184.009C416.314 184.1 416.923 184.319 417.47 184.655C418.016 184.99 418.488 185.433 418.857 185.958C420.185 180.963 423.368 176.662 427.756 173.931C432.145 171.2 437.41 170.245 442.478 171.261C447.546 172.276 452.037 175.185 455.035 179.396C458.033 183.606 459.314 188.801 458.616 193.923C459.718 193.28 460.944 192.877 462.213 192.74C463.482 192.603 464.765 192.735 465.98 193.128C467.194 193.521 468.312 194.165 469.26 195.02C470.209 195.874 470.966 196.918 471.484 198.085C471.484 198.085 472.373 201.548 472.755 203.349Z" fill="white"/>
</svg>
